<svg width="392" height="520" viewBox="0 0 392 520" fill="none" xmlns="http://www.w3.org/2000/svg">
<rect width="392" height="520" fill="#F7F7F7"/>
<path d="M62.5605 21.1328V28.4805H55.1953V21.1328H62.5605ZM56.8301 22.4863V27.1621H60.9258V22.4863H56.8301ZM66.9551 19.7266V24.4375H69.2402V25.8438H66.9551V31.2754H65.2852V19.7266H66.9551ZM67.623 33.8066V35.1602H56.9707V30.168H58.6406V33.8066H67.623ZM82.7227 20.6934V22.1348C82.7227 23.7783 82.7227 25.5977 82.1777 28.1641H84.498V29.5176H78.1699V35.4766H76.5V29.5176H70.1367V28.1641H80.543C80.7803 27.1357 80.9297 26.2129 81.0176 25.3691L71.666 25.8438L71.4551 24.4023L81.1055 24.1035C81.1406 23.4004 81.1406 22.75 81.1406 22.1348V22.0469H71.9121V20.6934H82.7227ZM100.09 28.7793V30.1328H93.6562V35.4766H92.0215V30.1328H85.6758V28.7793H100.09ZM98.2793 20.5879V26.7754H87.4863V20.5879H98.2793ZM89.1211 21.9238V25.4746H96.6094V21.9238H89.1211ZM114.381 29.8516V35.4941H112.711V31.1699H103.711V29.8516H114.381ZM114.381 19.7441V29.0254H112.711V26.8633H108.826C108.097 27.7246 106.945 28.2432 105.609 28.2344C103.236 28.252 101.479 26.6699 101.479 24.4199C101.479 22.2051 103.236 20.6055 105.609 20.623C106.945 20.6143 108.088 21.1328 108.826 21.9941H112.711V19.7441H114.381ZM105.609 22.0293C104.133 22.0293 103.078 23.0137 103.078 24.4199C103.078 25.8613 104.133 26.8281 105.609 26.8281C107.033 26.8281 108.105 25.8613 108.105 24.4199C108.105 23.0137 107.033 22.0293 105.609 22.0293ZM109.564 25.4922H112.711V23.3652H109.564C109.652 23.6992 109.705 24.0508 109.705 24.4199C109.705 24.7979 109.652 25.1582 109.564 25.4922ZM125.578 21.4316V22.3984C125.578 23.7168 125.578 25.7559 125.121 28.5684L123.469 28.4453C123.864 25.9229 123.908 24.1035 123.926 22.7852H117.527V21.4316H125.578ZM121.535 25.9316V30.6426C123.214 30.5898 124.919 30.4756 126.492 30.2734L126.58 31.5215C123.293 32.0488 119.637 32.1191 116.842 32.1016L116.648 30.748C117.633 30.7393 118.731 30.7305 119.883 30.6953V25.9316H121.535ZM129.076 19.7441V26.248H131.484V27.6719H129.076V35.4941H127.389V19.7441H129.076ZM144.756 21.2031V22.5918H139.219V30.2734C141.855 30.2646 143.675 30.168 145.74 29.7637L145.934 31.1348C143.666 31.5566 141.75 31.6621 138.779 31.6621H137.531V21.2031H144.756ZM149.906 19.7441V35.5293H148.236V26.7578H143.859V25.3691H148.236V19.7441H149.906ZM169.471 19.7441V25.791H171.439V27.1973H169.471V35.4941H167.818V19.7441H169.471ZM158.361 21.1855V25.123H160.031V21.1855H161.42V31.7324H156.973V21.1855H158.361ZM158.361 30.3438H160.031V26.459H158.361V30.3438ZM163.582 21.1855V25.123H165.217V21.1855H166.605V31.7324H162.193V21.1855H163.582ZM163.582 30.3438H165.217V26.459H163.582V30.3438ZM186.68 32.1895V33.5605H172.266V32.1895H186.68ZM184.922 20.9043V25.8262H175.676V28.1289H185.291V29.4648H174.023V24.4727H183.27V22.2578H173.988V20.9043H184.922ZM201.357 19.7441V35.4941H199.775V19.7441H201.357ZM198.035 20.1484V34.7207H196.453V27.4082H193.377C192.437 29.2363 190.942 30.8359 188.719 32.1367L187.77 30.9414C191.109 28.9551 192.718 26.3096 193.008 23.0664H188.508V21.6953H194.66C194.651 23.2334 194.44 24.7012 193.957 26.0723H196.453V20.1484H198.035ZM215.754 21.1328V28.4805H208.389V21.1328H215.754ZM210.023 22.4863V27.1621H214.119V22.4863H210.023ZM220.148 19.7266V24.4375H222.434V25.8438H220.148V31.2754H218.479V19.7266H220.148ZM220.816 33.8066V35.1602H210.164V30.168H211.834V33.8066H220.816ZM235.705 19.7441V22.9082H237.99V24.3145H235.705V27.6367H234.035V19.7441H235.705ZM225.721 20.4473V25.5801C227.839 25.5625 230.071 25.3955 232.488 24.9121L232.699 26.3008C230.045 26.8281 227.654 26.9863 225.334 26.9863H224.051V20.4473H225.721ZM235.705 28.3574V32.3652H227.215V33.9473H236.25V35.3008H225.562V31.082H234.035V29.6758H225.527V28.3574H235.705ZM251.35 21.1328C251.332 23.2246 253.898 25.1934 256.992 25.5977L256.342 26.9688C253.767 26.5557 251.499 25.2197 250.488 23.3652C249.451 25.2285 247.192 26.5557 244.635 26.9688L243.967 25.5977C247.061 25.1934 249.592 23.2422 249.609 21.1328V20.2715H251.35V21.1328ZM257.643 28.5156V29.8867H251.244V35.4941H249.609V29.8867H243.281V28.5156H257.643ZM268.699 30.1504C268.699 31.5039 269.367 32.9365 270.791 33.7891C272.241 32.8662 272.953 31.3545 272.953 30.1504V29.3945H274.588V30.1504C274.588 31.7852 275.66 33.3672 277.717 34.0352L276.891 35.2656C275.335 34.7295 274.28 33.6836 273.727 32.3828C273.226 33.6572 272.285 34.8086 270.844 35.4062C269.332 34.835 268.374 33.7188 267.891 32.4355C267.319 33.6748 266.282 34.7207 264.797 35.2656L263.953 34.0352C265.975 33.3145 267.064 31.6797 267.082 30.1504V29.3945H268.699V30.1504ZM276.293 19.7617V28.7266H274.623V19.7617H276.293ZM267.75 20.623C270.158 20.623 271.934 22.1523 271.934 24.3496C271.934 26.5293 270.158 28.041 267.75 28.041C265.342 28.041 263.549 26.5293 263.549 24.3496C263.549 22.1523 265.342 20.623 267.75 20.623ZM267.75 22.0469C266.256 22.0293 265.184 22.9609 265.184 24.3496C265.184 25.7207 266.256 26.6523 267.75 26.6523C269.227 26.6523 270.299 25.7207 270.299 24.3496C270.299 22.9609 269.227 22.0293 267.75 22.0469ZM291.533 24.3496V25.6855H280.688V20.3066H282.34V24.3496H291.533ZM293.186 27.6719V29.0078H278.771V27.6719H293.186ZM291.639 33.7539V35.125H280.564V30.502H282.234V33.7539H291.639ZM306.035 29.5527C309.287 29.5527 311.256 30.6426 311.256 32.5059C311.256 34.3867 309.287 35.4766 306.035 35.4941C302.748 35.4766 300.744 34.3867 300.744 32.5059C300.744 30.6426 302.748 29.5527 306.035 29.5527ZM306.035 30.8711C303.75 30.8711 302.396 31.4512 302.414 32.5059C302.396 33.5605 303.75 34.1582 306.035 34.1582C308.303 34.1582 309.621 33.5605 309.621 32.5059C309.621 31.4512 308.303 30.8711 306.035 30.8711ZM311.115 19.7441V23.5938H313.4V25.0176H311.115V29.1484H309.445V19.7441H311.115ZM300.99 20.7285V22.9961H305.121V20.7285H306.773V28.041H299.355V20.7285H300.99ZM300.99 26.7051H305.121V24.3145H300.99V26.7051ZM316.723 20.5527V22.8555H320.66V20.5527H322.312V23.5234H325.758V19.7441H327.428V28.3398H325.758V24.9121H322.312V27.8125H315.053V20.5527H316.723ZM316.723 26.459H320.66V24.1562H316.723V26.459ZM318.814 29.0781V30.8535H325.758V29.0781H327.41V35.2656H317.162V29.0781H318.814ZM318.814 33.9121H325.758V32.1543H318.814V33.9121Z" fill="black"/>
<circle cx="48" cy="146" r="18" fill="#173F95"/>
<path fill-rule="evenodd" clip-rule="evenodd" d="M41.2918 137.732C42.4151 136.615 44.2648 136.814 45.2053 138.071L46.3702 139.625C47.1362 140.648 47.0679 142.077 46.1588 142.98L45.9391 143.2C45.9142 143.292 45.9117 143.389 45.9317 143.482C45.9899 143.859 46.3046 144.657 47.6227 145.967C48.9407 147.278 49.7437 147.592 50.1258 147.651C50.2221 147.67 50.3216 147.667 50.4166 147.642L50.7932 147.268C51.6017 146.465 52.8422 146.314 53.8427 146.858L55.6057 147.818C57.1166 148.637 57.4978 150.69 56.261 151.921L54.9494 153.224C54.5359 153.635 53.9803 153.977 53.3028 154.041C51.6322 154.197 47.7399 153.997 43.6482 149.93C39.8298 146.132 39.0969 142.821 39.0037 141.189C38.9576 140.364 39.3471 139.666 39.8436 139.173L41.2918 137.732ZM44.0977 138.901C43.6298 138.276 42.7585 138.226 42.2674 138.714L40.8183 140.154C40.5137 140.457 40.3679 140.791 40.3864 141.11C40.4602 142.407 41.0509 145.395 44.6248 148.948C48.374 152.676 51.8361 152.787 53.1745 152.662C53.4477 152.637 53.7191 152.495 53.9729 152.243L55.2835 150.938C55.817 150.409 55.6998 149.443 54.9448 149.033L53.1819 148.074C52.6945 147.81 52.1241 147.897 51.7697 148.25L51.3497 148.668L50.8605 148.177C51.3497 148.668 51.3488 148.669 51.3479 148.669L51.347 148.671L51.3442 148.673L51.3377 148.679L51.3239 148.692C51.2849 148.728 51.2429 148.761 51.1984 148.79C51.1245 148.839 51.0267 148.893 50.9039 148.938C50.6547 149.032 50.3243 149.081 49.9163 149.019C49.1161 148.896 48.0556 148.35 46.6461 146.949C45.2376 145.548 44.6875 144.494 44.5639 143.695C44.5002 143.287 44.5509 142.956 44.6451 142.707C44.6969 142.567 44.7711 142.436 44.8647 142.32L44.8943 142.287L44.9072 142.273L44.9127 142.268L44.9155 142.265L44.9174 142.263L45.1832 141.999C45.5782 141.605 45.6336 140.953 45.2616 140.455L44.0977 138.901Z" fill="white"/>
<path d="M88.4678 163.146C86.1094 163.146 84.7617 161.169 84.7617 157.697C84.7617 154.255 86.1387 152.248 88.4678 152.248C90.7969 152.248 92.1738 154.255 92.1738 157.697C92.1738 161.169 90.8115 163.146 88.4678 163.146ZM88.4678 161.975C89.9912 161.975 90.8848 160.437 90.8848 157.697C90.8848 154.958 89.9912 153.391 88.4678 153.391C86.9443 153.391 86.0361 154.958 86.0361 157.697C86.0361 160.437 86.9297 161.975 88.4678 161.975ZM93.9316 163L93.917 162.033L97.5352 158.225C98.7949 156.892 99.3955 156.174 99.3955 155.192C99.3955 154.108 98.4727 153.391 97.2861 153.391C96.0264 153.391 95.2207 154.196 95.2207 155.383H93.9756C93.9609 153.508 95.4111 152.248 97.3301 152.248C99.249 152.248 100.626 153.537 100.626 155.192C100.626 156.379 100.069 157.302 98.1943 159.235L95.7627 161.74V161.828H100.816V163H93.9316ZM107.306 157.126V158.283H102.662V157.126H107.306ZM108.961 160.832V159.748L113.736 152.395H115.362V159.675H116.842V160.832H115.362V163H114.103V160.832H108.961ZM110.382 159.675H114.103V154.064H113.971L110.382 159.587V159.675ZM122.276 163.146C120.431 163.117 118.409 162.033 118.409 158.107C118.409 154.357 119.947 152.248 122.438 152.248C124.298 152.248 125.602 153.391 125.88 155.061H124.576C124.327 154.123 123.624 153.42 122.438 153.42C120.694 153.42 119.654 154.914 119.654 157.463H119.786C120.401 156.584 121.368 156.057 122.511 156.057C124.4 156.057 125.968 157.521 125.968 159.572C125.968 161.564 124.503 163.161 122.276 163.146ZM122.276 161.989C123.653 161.989 124.679 160.905 124.693 159.587C124.679 158.283 123.697 157.214 122.306 157.214C120.914 157.214 119.845 158.342 119.83 159.602C119.83 160.847 120.855 161.989 122.276 161.989ZM131.241 163.146C129.322 163.146 127.872 161.96 127.799 160.334H129.073C129.176 161.286 130.099 161.989 131.241 161.989C132.618 161.989 133.614 160.979 133.614 159.646C133.614 158.269 132.574 157.258 131.153 157.243C130.26 157.229 129.571 157.507 129.176 158.195H127.901L128.648 152.395H134.391V153.566H129.747L129.352 156.672H129.454C129.923 156.306 130.641 156.057 131.388 156.057C133.409 156.057 134.903 157.551 134.903 159.616C134.903 161.667 133.351 163.146 131.241 163.146ZM141.305 157.126V158.283H136.661V157.126H141.305ZM143.224 163L148.087 153.64V153.566H142.477V152.395H149.449V153.625L144.601 163H143.224ZM154.503 163.146C152.276 163.146 150.724 161.916 150.738 160.188C150.724 158.811 151.676 157.683 152.892 157.492V157.434C151.837 157.185 151.148 156.218 151.148 155.061C151.148 153.435 152.569 152.248 154.503 152.248C156.437 152.248 157.857 153.435 157.872 155.061C157.857 156.218 157.154 157.185 156.114 157.434V157.492C157.315 157.683 158.268 158.811 158.282 160.188C158.268 161.916 156.715 163.146 154.503 163.146ZM154.503 161.989C156.026 161.989 156.964 161.228 156.964 160.114C156.964 158.942 155.924 158.078 154.503 158.078C153.082 158.078 152.027 158.942 152.057 160.114C152.027 161.228 152.979 161.989 154.503 161.989ZM154.503 156.965C155.704 156.965 156.583 156.232 156.583 155.163C156.583 154.108 155.748 153.391 154.503 153.391C153.243 153.391 152.423 154.108 152.423 155.163C152.423 156.232 153.287 156.965 154.503 156.965ZM163.717 163.146C161.607 163.146 160.099 162.019 160.025 160.334H161.358C161.432 161.345 162.442 161.975 163.702 161.975C165.094 161.975 166.119 161.213 166.119 160.114C166.119 158.957 165.196 158.137 163.541 158.137H162.677V156.979H163.541C164.83 156.979 165.724 156.262 165.724 155.163C165.724 154.108 164.947 153.391 163.746 153.391C162.618 153.391 161.578 154.021 161.52 155.061H160.245C160.318 153.376 161.871 152.248 163.761 152.248C165.782 152.248 167.013 153.566 166.998 155.09C167.013 156.291 166.31 157.185 165.196 157.492V157.565C166.573 157.785 167.423 158.767 167.408 160.114C167.423 161.857 165.826 163.146 163.717 163.146ZM172.857 163.146C170.631 163.146 169.078 161.916 169.093 160.188C169.078 158.811 170.03 157.683 171.246 157.492V157.434C170.191 157.185 169.503 156.218 169.503 155.061C169.503 153.435 170.924 152.248 172.857 152.248C174.791 152.248 176.212 153.435 176.227 155.061C176.212 156.218 175.509 157.185 174.469 157.434V157.492C175.67 157.683 176.622 158.811 176.637 160.188C176.622 161.916 175.069 163.146 172.857 163.146ZM172.857 161.989C174.381 161.989 175.318 161.228 175.318 160.114C175.318 158.942 174.278 158.078 172.857 158.078C171.437 158.078 170.382 158.942 170.411 160.114C170.382 161.228 171.334 161.989 172.857 161.989ZM172.857 156.965C174.059 156.965 174.938 156.232 174.938 155.163C174.938 154.108 174.103 153.391 172.857 153.391C171.598 153.391 170.777 154.108 170.777 155.163C170.777 156.232 171.642 156.965 172.857 156.965Z" fill="#222222"/>
<path d="M84.4834 131.211V129.395H93.1699V131.211H89.918V140H87.7354V131.211H84.4834ZM96.9346 140.161C94.5029 140.161 93.0088 138.579 93.0088 136.06C93.0088 133.599 94.5176 131.943 96.8467 131.943C98.9414 131.943 100.582 133.262 100.582 135.972V136.587H95.1475C95.1475 137.788 95.8652 138.535 96.9785 138.535C97.7109 138.535 98.2383 138.213 98.458 137.729H100.523C100.216 139.194 98.8975 140.161 96.9346 140.161ZM95.1475 135.225H98.5312C98.5312 134.258 97.8574 133.569 96.8906 133.569C95.8945 133.569 95.1841 134.309 95.1475 135.225ZM104.112 129.395V140H101.944V129.395H104.112ZM107.071 140.132C106.383 140.132 105.826 139.575 105.841 138.901C105.826 138.228 106.383 137.686 107.071 137.686C107.716 137.686 108.287 138.228 108.287 138.901C108.287 139.575 107.716 140.132 107.071 140.132Z" fill="#222222"/>
<circle cx="48" cy="254" r="18" fill="#173F95"/>
<path d="M48 257.571C48.9472 257.571 49.8556 257.195 50.5254 256.525C51.1952 255.856 51.5714 254.947 51.5714 254C51.5714 253.053 51.1952 252.144 50.5254 251.475C49.8556 250.805 48.9472 250.429 48 250.429C47.0528 250.429 46.1444 250.805 45.4746 251.475C44.8048 252.144 44.4286 253.053 44.4286 254C44.4286 254.947 44.8048 255.856 45.4746 256.525C46.1444 257.195 47.0528 257.571 48 257.571ZM48.7143 244.714C48.7143 244.525 48.639 244.343 48.5051 244.209C48.3711 244.075 48.1894 244 48 244C47.8106 244 47.6289 244.075 47.4949 244.209C47.361 244.343 47.2857 244.525 47.2857 244.714V246.893C45.6463 247.058 44.1142 247.784 42.9492 248.949C41.7841 250.114 41.0576 251.646 40.8929 253.286H38.7143C38.5248 253.286 38.3432 253.361 38.2092 253.495C38.0753 253.629 38 253.811 38 254C38 254.189 38.0753 254.371 38.2092 254.505C38.3432 254.639 38.5248 254.714 38.7143 254.714H40.8929C41.0573 256.354 41.7836 257.886 42.9487 259.052C44.1139 260.217 45.6461 260.944 47.2857 261.109V263.286C47.2857 263.475 47.361 263.657 47.4949 263.791C47.6289 263.925 47.8106 264 48 264C48.1894 264 48.3711 263.925 48.5051 263.791C48.639 263.657 48.7143 263.475 48.7143 263.286V261.109C50.3539 260.944 51.8862 260.217 53.0513 259.052C54.2164 257.886 54.9427 256.354 55.1071 254.714H57.2857C57.4752 254.714 57.6568 254.639 57.7908 254.505C57.9247 254.371 58 254.189 58 254C58 253.811 57.9247 253.629 57.7908 253.495C57.6568 253.361 57.4752 253.286 57.2857 253.286H55.1071C54.9424 251.646 54.2159 250.114 53.0508 248.949C51.8858 247.784 50.3537 247.058 48.7143 246.893V244.714ZM48 259.714C46.4845 259.714 45.031 259.112 43.9594 258.041C42.8878 256.969 42.2857 255.516 42.2857 254C42.2857 252.484 42.8878 251.031 43.9594 249.959C45.031 248.888 46.4845 248.286 48 248.286C49.5155 248.286 50.969 248.888 52.0406 249.959C53.1122 251.031 53.7143 252.484 53.7143 254C53.7143 255.516 53.1122 256.969 52.0406 258.041C50.969 259.112 49.5155 259.714 48 259.714Z" fill="white"/>
<path d="M86.666 248H84.293L87.9697 237.395H90.7969L94.459 248H92.1006L91.3096 245.554H87.4717L86.666 248ZM88.0283 243.84H90.7529L89.4199 239.782H89.3467L88.0283 243.84ZM98.1797 248.132C96.3633 248.132 94.9424 246.682 94.9424 244.03C94.9424 241.306 96.4219 239.943 98.1797 239.943C99.5127 239.943 100.143 240.734 100.436 241.379H100.509V237.395H102.677V248H100.538V246.726H100.436C100.128 247.385 99.4688 248.132 98.1797 248.132ZM98.8535 246.403C99.9375 246.403 100.553 245.451 100.553 244.016C100.553 242.58 99.9375 241.672 98.8535 241.672C97.7549 241.672 97.1689 242.624 97.1689 244.016C97.1689 245.422 97.7549 246.403 98.8535 246.403ZM104.42 248V240.046H106.515V241.423H106.603C106.896 240.441 107.628 239.929 108.521 239.929C108.741 239.929 109.02 239.958 109.21 240.002V241.936C109.005 241.877 108.595 241.818 108.287 241.818C107.306 241.818 106.588 242.507 106.588 243.474V248H104.42ZM113.619 248.161C111.188 248.161 109.693 246.579 109.693 244.06C109.693 241.599 111.202 239.943 113.531 239.943C115.626 239.943 117.267 241.262 117.267 243.972V244.587H111.832C111.832 245.788 112.55 246.535 113.663 246.535C114.396 246.535 114.923 246.213 115.143 245.729H117.208C116.9 247.194 115.582 248.161 113.619 248.161ZM111.832 243.225H115.216C115.216 242.258 114.542 241.569 113.575 241.569C112.579 241.569 111.869 242.309 111.832 243.225ZM123.17 242.404C123.082 241.848 122.584 241.481 121.866 241.481C121.163 241.481 120.621 241.818 120.636 242.302C120.621 242.653 120.914 242.932 121.661 243.093L123.082 243.386C124.62 243.708 125.367 244.396 125.382 245.539C125.367 247.106 123.961 248.161 121.852 248.161C119.698 248.161 118.438 247.194 118.263 245.642H120.445C120.548 246.271 121.061 246.594 121.852 246.594C122.643 246.594 123.17 246.271 123.17 245.759C123.17 245.349 122.833 245.1 122.086 244.938L120.768 244.675C119.259 244.382 118.468 243.591 118.482 242.419C118.468 240.896 119.786 239.943 121.837 239.943C123.844 239.943 125.089 240.896 125.206 242.404H123.17ZM131.256 242.404C131.168 241.848 130.67 241.481 129.952 241.481C129.249 241.481 128.707 241.818 128.722 242.302C128.707 242.653 129 242.932 129.747 243.093L131.168 243.386C132.706 243.708 133.453 244.396 133.468 245.539C133.453 247.106 132.047 248.161 129.938 248.161C127.784 248.161 126.524 247.194 126.349 245.642H128.531C128.634 246.271 129.146 246.594 129.938 246.594C130.729 246.594 131.256 246.271 131.256 245.759C131.256 245.349 130.919 245.1 130.172 244.938L128.854 244.675C127.345 244.382 126.554 243.591 126.568 242.419C126.554 240.896 127.872 239.943 129.923 239.943C131.93 239.943 133.175 240.896 133.292 242.404H131.256Z" fill="#222222"/>
<path d="M89.1123 262.665C89.1123 265.023 90.6211 267.396 92.5107 268.261L91.8223 269.198C90.3428 268.437 89.1196 266.876 88.541 265.023C87.9624 266.972 86.7393 268.642 85.2598 269.433L84.5127 268.51C86.417 267.572 87.9404 265.067 87.9404 262.665V260.292H89.1123V262.665ZM95.3232 259.164V272.216H94.1807V264.555H91.0898V263.617H94.1807V259.164H95.3232ZM103.424 259.325C106.324 259.325 108.023 260.131 108.023 261.581C108.023 263.046 106.324 263.837 103.424 263.852C100.523 263.837 98.8096 263.046 98.8096 261.581C98.8096 260.131 100.523 259.325 103.424 259.325ZM103.424 260.204C101.256 260.219 99.9961 260.717 100.011 261.581C99.9961 262.475 101.256 262.958 103.424 262.973C105.577 262.958 106.852 262.475 106.852 261.581C106.852 260.717 105.577 260.219 103.424 260.204ZM109.356 264.716V265.639H103.98V266.869H107.833V269.784H100.099V271.132H108.229V272.04H98.9561V268.935H106.705V267.748H98.9268V266.869H102.838V265.639H97.4912V264.716H109.356ZM120.709 263.72V265.639H126.085V266.576H114.22V265.639H119.581V263.72H120.709ZM120.724 259.984C120.724 261.713 123.067 263.163 125.367 263.485L124.898 264.408C122.921 264.064 120.965 263.017 120.152 261.508C119.332 263.024 117.369 264.064 115.377 264.408L114.938 263.485C117.237 263.163 119.566 261.713 119.566 259.984V259.369H120.724V259.984ZM120.152 267.66C122.95 267.66 124.62 268.466 124.635 269.916C124.62 271.366 122.95 272.157 120.152 272.157C117.325 272.157 115.655 271.366 115.655 269.916C115.655 268.466 117.325 267.66 120.152 267.66ZM120.152 268.568C118.043 268.568 116.812 269.052 116.827 269.916C116.812 270.766 118.043 271.264 120.152 271.264C122.232 271.264 123.478 270.766 123.478 269.916C123.478 269.052 122.232 268.568 120.152 268.568ZM134.669 260.585V261.537H133.219V267.807C133.922 267.755 134.618 267.697 135.284 267.616L135.343 268.466C132.589 268.905 129.469 268.949 127.169 268.964L127.022 267.982L128.78 267.968V261.537H127.345V260.585H134.669ZM137.262 259.164V264.394H139.444V265.36H137.262V272.187H136.119V259.164H137.262ZM129.894 267.953C130.619 267.938 131.373 267.909 132.12 267.865V261.537H129.894V267.953ZM150.445 260.014V261.156C150.445 262.394 150.445 263.734 150.079 265.609H152.013V266.562H146.637V272.216H145.479V266.562H140.147V265.609H148.907C149.303 263.734 149.303 262.365 149.303 261.156V260.966H141.642V260.014H150.445ZM168.741 265.609V266.532H163.365V267.851C165.848 267.953 167.276 268.708 167.291 270.004C167.276 271.41 165.636 272.157 162.809 272.157C159.981 272.157 158.312 271.41 158.312 270.004C158.312 268.708 159.754 267.96 162.237 267.851V266.532H156.876V265.609H168.741ZM163.365 259.135V260.438H167.54V261.376H163.453C163.563 262.819 165.614 263.786 168.038 264.013L167.687 264.906C165.526 264.679 163.6 263.91 162.809 262.592C162.01 263.91 160.077 264.679 157.931 264.906L157.564 264.013C159.989 263.786 162.04 262.819 162.179 261.376H158.106V260.438H162.237V259.135H163.365ZM162.809 268.715C160.699 268.715 159.469 269.184 159.483 270.004C159.469 270.824 160.699 271.278 162.809 271.264C164.889 271.278 166.134 270.824 166.134 270.004C166.134 269.184 164.889 268.715 162.809 268.715ZM176.637 260.307V266.342H170.528V260.307H176.637ZM171.656 261.259V265.419H175.509V261.259H171.656ZM180.592 259.179V268.539H179.449V259.179H180.592ZM181.002 270.795V271.747H172.184V267.631H173.326V270.795H181.002ZM194.728 269.608V270.575H182.804V269.608H188.165V267.147H184.298V263.134H192.091V261.083H184.269V260.131H193.219V264.071H185.44V266.195H193.526V267.147H189.293V269.608H194.728ZM203.458 271.146C201.539 271.146 200.089 269.96 200.016 268.334H201.29C201.393 269.286 202.315 269.989 203.458 269.989C204.835 269.989 205.831 268.979 205.831 267.646C205.831 266.269 204.791 265.258 203.37 265.243C202.477 265.229 201.788 265.507 201.393 266.195H200.118L200.865 260.395H206.607V261.566H201.964L201.568 264.672H201.671C202.14 264.306 202.857 264.057 203.604 264.057C205.626 264.057 207.12 265.551 207.12 267.616C207.12 269.667 205.567 271.146 203.458 271.146ZM208.951 271L208.937 270.033L212.555 266.225C213.814 264.892 214.415 264.174 214.415 263.192C214.415 262.108 213.492 261.391 212.306 261.391C211.046 261.391 210.24 262.196 210.24 263.383H208.995C208.98 261.508 210.431 260.248 212.35 260.248C214.269 260.248 215.646 261.537 215.646 263.192C215.646 264.379 215.089 265.302 213.214 267.235L210.782 269.74V269.828H215.836V271H208.951ZM231.129 259.164V264.467H233.238V265.434H231.129V272.187H229.986V259.164H231.129ZM227.76 260.57C227.76 264.262 226.031 267.616 221.783 269.711L221.139 268.803C224.508 267.125 226.339 264.621 226.603 261.537H221.739V260.57H227.76ZM245.895 265.741V266.679H234.015V265.741H245.895ZM244.532 263.354V264.306H235.523V259.735H244.415V260.673H236.666V263.354H244.532ZM244.635 270.927V271.894H235.553V268.085H236.695V270.927H244.635ZM254.464 260.585V261.537H253.014V267.807C253.717 267.755 254.413 267.697 255.079 267.616L255.138 268.466C252.384 268.905 249.264 268.949 246.964 268.964L246.817 267.982L248.575 267.968V261.537H247.14V260.585H254.464ZM257.057 259.164V264.394H259.239V265.36H257.057V272.187H255.914V259.164H257.057ZM249.688 267.953C250.414 267.938 251.168 267.909 251.915 267.865V261.537H249.688V267.953ZM270.68 259.164V272.216H269.522V259.164H270.68ZM263.751 260.175C265.685 260.189 267.076 261.947 267.076 264.716C267.076 267.484 265.685 269.242 263.751 269.242C261.803 269.242 260.426 267.484 260.426 264.716C260.426 261.947 261.803 260.189 263.751 260.175ZM263.751 261.2C262.447 261.215 261.539 262.592 261.539 264.716C261.539 266.84 262.447 268.217 263.751 268.217C265.055 268.217 265.963 266.84 265.963 264.716C265.963 262.592 265.055 261.215 263.751 261.2ZM284.83 269.491V270.458H272.906V269.491H284.83ZM275.47 260.102V262.533H282.237V260.102H283.365V266.884H274.312V260.102H275.47ZM275.47 265.961H282.237V263.456H275.47V265.961ZM296.607 259.179V267.763H295.45V266.898H292.667V266.063H295.45V259.179H296.607ZM285.797 264.613C288.185 264.613 291.466 264.555 294.278 264.203L294.352 265.038C293.106 265.229 291.788 265.353 290.499 265.419V267.587H289.371V265.478C288.133 265.529 286.961 265.536 285.943 265.536L285.797 264.613ZM296.607 268.275V272.187H295.45V269.213H287.701V268.275H296.607ZM290.074 259.516C292.008 259.516 293.297 260.336 293.312 261.64C293.297 262.958 292.008 263.778 290.074 263.793C288.141 263.778 286.837 262.958 286.837 261.64C286.837 260.336 288.141 259.516 290.074 259.516ZM290.074 260.365C288.771 260.365 287.906 260.878 287.921 261.64C287.906 262.431 288.771 262.943 290.074 262.958C291.363 262.943 292.228 262.431 292.228 261.64C292.228 260.878 291.363 260.365 290.074 260.365ZM305.323 261.083C305.323 263.31 307.872 265.302 310.143 265.727L309.615 266.693C307.652 266.239 305.58 264.84 304.737 262.914C303.895 264.833 301.83 266.232 299.859 266.693L299.332 265.727C301.588 265.287 304.122 263.324 304.122 261.083V260.087H305.323V261.083ZM310.758 269.462V270.414H298.834V269.462H310.758ZM316.207 271V260.395H319.928C322.154 260.395 323.194 261.64 323.194 263.207C323.194 264.569 322.389 265.185 321.466 265.434V265.536C322.447 265.595 323.619 266.503 323.619 268.188C323.619 269.784 322.564 271 320.06 271H316.207ZM320.045 269.828C321.7 269.828 322.345 269.096 322.345 268.173C322.345 267.089 321.48 266.181 320.118 266.181H317.525V269.828H320.045ZM319.884 265.038C321.026 265.038 321.935 264.335 321.935 263.222C321.935 262.299 321.319 261.566 319.928 261.566H317.525V265.038H319.884ZM336.729 265.609V266.532H324.85V265.609H330.226V264.086H326.358V259.779H335.25V260.702H327.486V263.148H335.338V264.086H331.339V265.609H336.729ZM330.782 267.484C333.58 267.484 335.25 268.334 335.265 269.828C335.25 271.337 333.58 272.172 330.782 272.187C327.97 272.172 326.285 271.337 326.285 269.828C326.285 268.334 327.97 267.484 330.782 267.484ZM330.782 268.393C328.688 268.393 327.442 268.935 327.457 269.828C327.442 270.736 328.688 271.264 330.782 271.264C332.848 271.264 334.107 270.736 334.107 269.828C334.107 268.935 332.848 268.393 330.782 268.393ZM84.9961 289L84.9814 288.033L88.5996 284.225C89.8594 282.892 90.46 282.174 90.46 281.192C90.46 280.108 89.5371 279.391 88.3506 279.391C87.0908 279.391 86.2852 280.196 86.2852 281.383H85.04C85.0254 279.508 86.4756 278.248 88.3945 278.248C90.3135 278.248 91.6904 279.537 91.6904 281.192C91.6904 282.379 91.1338 283.302 89.2588 285.235L86.8271 287.74V287.828H91.8809V289H84.9961ZM105.196 283.785V284.737H93.3311V283.785H105.196ZM99.8203 277.135V278.438H103.995V279.376H99.8936C99.9888 280.819 102.054 281.815 104.493 282.042L104.142 282.936C101.981 282.708 100.055 281.932 99.2637 280.621C98.4653 281.932 96.5317 282.708 94.3857 282.936L94.0195 282.042C96.4585 281.815 98.5239 280.819 98.6338 279.376H94.5615V278.438H98.6924V277.135H99.8203ZM99.2637 285.851C102.091 285.851 103.731 286.612 103.746 288.004C103.731 289.41 102.091 290.157 99.2637 290.157C96.4365 290.157 94.7666 289.41 94.7666 288.004C94.7666 286.612 96.4365 285.851 99.2637 285.851ZM99.2637 286.715C97.1543 286.715 95.9238 287.184 95.9385 288.004C95.9238 288.824 97.1543 289.278 99.2637 289.264C101.344 289.278 102.589 288.824 102.589 288.004C102.589 287.184 101.344 286.715 99.2637 286.715ZM110.528 289L110.514 288.033L114.132 284.225C115.392 282.892 115.992 282.174 115.992 281.192C115.992 280.108 115.069 279.391 113.883 279.391C112.623 279.391 111.817 280.196 111.817 281.383H110.572C110.558 279.508 112.008 278.248 113.927 278.248C115.846 278.248 117.223 279.537 117.223 281.192C117.223 282.379 116.666 283.302 114.791 285.235L112.359 287.74V287.828H117.413V289H110.528ZM123.082 278.395V289H121.749V279.771H121.69L119.112 281.485V280.152L121.749 278.395H123.082ZM129.659 278.395V289H128.326V279.771H128.268L125.689 281.485V280.152L128.326 278.395H129.659ZM143.268 279.098V280.05H132.604V279.098H137.379V277.384H138.507V279.098H143.268ZM143.941 287.711V288.663H132.018V287.711H137.379V285.88C135.064 285.755 133.658 284.854 133.673 283.39C133.658 281.837 135.299 280.929 137.95 280.943C140.572 280.929 142.228 281.837 142.228 283.39C142.228 284.854 140.807 285.755 138.507 285.88V287.711H143.941ZM137.95 281.852C136.002 281.852 134.815 282.423 134.83 283.39C134.815 284.386 136.002 284.942 137.95 284.957C139.869 284.942 141.056 284.386 141.056 283.39C141.056 282.423 139.869 281.852 137.95 281.852ZM147.12 288.019L145.978 292.003H144.894L145.699 288.019H147.12ZM153.053 289L153.038 288.033L156.656 284.225C157.916 282.892 158.517 282.174 158.517 281.192C158.517 280.108 157.594 279.391 156.407 279.391C155.147 279.391 154.342 280.196 154.342 281.383H153.097C153.082 279.508 154.532 278.248 156.451 278.248C158.37 278.248 159.747 279.537 159.747 281.192C159.747 282.379 159.19 283.302 157.315 285.235L154.884 287.74V287.828H159.938V289H153.053ZM165.606 278.395V289H164.273V279.771H164.215L161.637 281.485V280.152L164.273 278.395H165.606ZM168.434 289L168.419 288.033L172.037 284.225C173.297 282.892 173.897 282.174 173.897 281.192C173.897 280.108 172.975 279.391 171.788 279.391C170.528 279.391 169.723 280.196 169.723 281.383H168.478C168.463 279.508 169.913 278.248 171.832 278.248C173.751 278.248 175.128 279.537 175.128 281.192C175.128 282.379 174.571 283.302 172.696 285.235L170.265 287.74V287.828H175.318V289H168.434ZM188.019 279.098V280.05H177.354V279.098H182.13V277.384H183.258V279.098H188.019ZM188.692 287.711V288.663H176.769V287.711H182.13V285.88C179.815 285.755 178.409 284.854 178.424 283.39C178.409 281.837 180.05 280.929 182.701 280.943C185.323 280.929 186.979 281.837 186.979 283.39C186.979 284.854 185.558 285.755 183.258 285.88V287.711H188.692ZM182.701 281.852C180.753 281.852 179.566 282.423 179.581 283.39C179.566 284.386 180.753 284.942 182.701 284.957C184.62 284.942 185.807 284.386 185.807 283.39C185.807 282.423 184.62 281.852 182.701 281.852Z" fill="#222222"/>
<circle cx="48" cy="200" r="18" fill="#173F95"/>
<path d="M42.2422 195.6V192H53.7622V195.6" stroke="white" stroke-width="1.5" stroke-linecap="round" stroke-linejoin="round"/>
<path d="M53.7622 202.078H42.2422V208.198H53.7622V202.078Z" stroke="white" stroke-width="1.5" stroke-linecap="round" stroke-linejoin="round"/>
<path d="M42.24 204.242H39V197.042C39 196.246 39.6984 195.602 40.56 195.602H55.44C56.3016 195.602 57 196.246 57 197.042V204.242H53.76" stroke="white" stroke-width="1.5" stroke-linecap="round" stroke-linejoin="round"/>
<path d="M53.4 199.738C53.8971 199.738 54.3 199.335 54.3 198.838C54.3 198.34 53.8971 197.938 53.4 197.938C52.9029 197.938 52.5 198.34 52.5 198.838C52.5 199.335 52.9029 199.738 53.4 199.738Z" fill="white"/>
<path d="M88.4678 217.146C86.1094 217.146 84.7617 215.169 84.7617 211.697C84.7617 208.255 86.1387 206.248 88.4678 206.248C90.7969 206.248 92.1738 208.255 92.1738 211.697C92.1738 215.169 90.8115 217.146 88.4678 217.146ZM88.4678 215.975C89.9912 215.975 90.8848 214.437 90.8848 211.697C90.8848 208.958 89.9912 207.391 88.4678 207.391C86.9443 207.391 86.0361 208.958 86.0361 211.697C86.0361 214.437 86.9297 215.975 88.4678 215.975ZM93.9316 217L93.917 216.033L97.5352 212.225C98.7949 210.892 99.3955 210.174 99.3955 209.192C99.3955 208.108 98.4727 207.391 97.2861 207.391C96.0264 207.391 95.2207 208.196 95.2207 209.383H93.9756C93.9609 207.508 95.4111 206.248 97.3301 206.248C99.249 206.248 100.626 207.537 100.626 209.192C100.626 210.379 100.069 211.302 98.1943 213.235L95.7627 215.74V215.828H100.816V217H93.9316ZM107.306 211.126V212.283H102.662V211.126H107.306ZM108.961 214.832V213.748L113.736 206.395H115.362V213.675H116.842V214.832H115.362V217H114.103V214.832H108.961ZM110.382 213.675H114.103V208.064H113.971L110.382 213.587V213.675ZM122.276 217.146C120.431 217.117 118.409 216.033 118.409 212.107C118.409 208.357 119.947 206.248 122.438 206.248C124.298 206.248 125.602 207.391 125.88 209.061H124.576C124.327 208.123 123.624 207.42 122.438 207.42C120.694 207.42 119.654 208.914 119.654 211.463H119.786C120.401 210.584 121.368 210.057 122.511 210.057C124.4 210.057 125.968 211.521 125.968 213.572C125.968 215.564 124.503 217.161 122.276 217.146ZM122.276 215.989C123.653 215.989 124.679 214.905 124.693 213.587C124.679 212.283 123.697 211.214 122.306 211.214C120.914 211.214 119.845 212.342 119.83 213.602C119.83 214.847 120.855 215.989 122.276 215.989ZM131.241 217.146C129.322 217.146 127.872 215.96 127.799 214.334H129.073C129.176 215.286 130.099 215.989 131.241 215.989C132.618 215.989 133.614 214.979 133.614 213.646C133.614 212.269 132.574 211.258 131.153 211.243C130.26 211.229 129.571 211.507 129.176 212.195H127.901L128.648 206.395H134.391V207.566H129.747L129.352 210.672H129.454C129.923 210.306 130.641 210.057 131.388 210.057C133.409 210.057 134.903 211.551 134.903 213.616C134.903 215.667 133.351 217.146 131.241 217.146ZM141.305 211.126V212.283H136.661V211.126H141.305ZM143.224 217L148.087 207.64V207.566H142.477V206.395H149.449V207.625L144.601 217H143.224ZM154.503 217.146C152.276 217.146 150.724 215.916 150.738 214.188C150.724 212.811 151.676 211.683 152.892 211.492V211.434C151.837 211.185 151.148 210.218 151.148 209.061C151.148 207.435 152.569 206.248 154.503 206.248C156.437 206.248 157.857 207.435 157.872 209.061C157.857 210.218 157.154 211.185 156.114 211.434V211.492C157.315 211.683 158.268 212.811 158.282 214.188C158.268 215.916 156.715 217.146 154.503 217.146ZM154.503 215.989C156.026 215.989 156.964 215.228 156.964 214.114C156.964 212.942 155.924 212.078 154.503 212.078C153.082 212.078 152.027 212.942 152.057 214.114C152.027 215.228 152.979 215.989 154.503 215.989ZM154.503 210.965C155.704 210.965 156.583 210.232 156.583 209.163C156.583 208.108 155.748 207.391 154.503 207.391C153.243 207.391 152.423 208.108 152.423 209.163C152.423 210.232 153.287 210.965 154.503 210.965ZM163.717 217.146C161.607 217.146 160.099 216.019 160.025 214.334H161.358C161.432 215.345 162.442 215.975 163.702 215.975C165.094 215.975 166.119 215.213 166.119 214.114C166.119 212.957 165.196 212.137 163.541 212.137H162.677V210.979H163.541C164.83 210.979 165.724 210.262 165.724 209.163C165.724 208.108 164.947 207.391 163.746 207.391C162.618 207.391 161.578 208.021 161.52 209.061H160.245C160.318 207.376 161.871 206.248 163.761 206.248C165.782 206.248 167.013 207.566 166.998 209.09C167.013 210.291 166.31 211.185 165.196 211.492V211.565C166.573 211.785 167.423 212.767 167.408 214.114C167.423 215.857 165.826 217.146 163.717 217.146ZM172.843 206.248C174.674 206.263 176.695 207.361 176.695 211.272C176.695 215.037 175.157 217.146 172.667 217.146C170.807 217.146 169.488 216.004 169.225 214.319H170.528C170.763 215.271 171.48 215.975 172.667 215.975C174.396 215.975 175.45 214.48 175.465 211.902H175.318C174.703 212.781 173.736 213.309 172.608 213.309C170.704 213.309 169.137 211.858 169.137 209.808C169.137 207.83 170.587 206.233 172.843 206.248ZM172.843 207.405C171.451 207.405 170.411 208.489 170.426 209.793C170.426 211.111 171.407 212.151 172.799 212.151C174.176 212.151 175.26 211.009 175.26 209.764C175.26 208.548 174.249 207.405 172.843 207.405Z" fill="#222222"/>
<path d="M84.8936 194V183.395H91.8809V185.211H87.0908V187.789H91.4268V189.605H87.0908V194H84.8936ZM92.8037 191.773C92.8037 190.001 94.2393 189.415 95.7627 189.327C96.334 189.291 97.4033 189.239 97.7402 189.225V188.58C97.7256 187.921 97.2715 187.525 96.4658 187.525C95.7334 187.525 95.2646 187.862 95.1475 188.404H93.082C93.2139 187.027 94.415 185.943 96.5244 185.943C98.2529 185.943 99.8936 186.72 99.8936 188.639V194H97.8428V192.901H97.7842C97.3887 193.634 96.6416 194.146 95.4551 194.146C93.9316 194.146 92.8037 193.355 92.8037 191.773ZM94.8838 191.715C94.8838 192.33 95.3818 192.652 96.0703 192.652C97.0518 192.652 97.7549 191.993 97.7402 191.158V190.572C97.4106 190.587 96.4878 190.638 96.1143 190.675C95.3672 190.748 94.8838 191.1 94.8838 191.715ZM103.351 186.046L104.83 188.844L106.339 186.046H108.58L106.251 190.016L108.639 194H106.412L104.83 191.231L103.277 194H101.021L103.395 190.016L101.109 186.046H103.351Z" fill="#222222"/>
<path d="M89.4346 103.111C89.2588 102.452 88.7607 102.013 87.8232 102.013C86.8418 102.013 86.1387 102.54 86.1387 103.214C86.1387 103.741 86.5635 104.107 87.501 104.327L88.6875 104.62C90.1084 104.957 90.8115 105.66 90.8115 106.773C90.8115 108.15 89.6836 109.161 87.6914 109.161C85.9043 109.161 84.835 108.37 84.6299 106.92H85.9482C86.0947 107.696 86.666 108.062 87.6621 108.062C88.79 108.062 89.5078 107.594 89.5078 106.847C89.5078 106.29 89.1123 105.909 88.2041 105.704L87.0029 105.426C85.6113 105.104 84.8789 104.342 84.8789 103.287C84.8789 101.925 86.0654 100.943 87.8232 100.943C89.4639 100.943 90.5039 101.822 90.665 103.111H89.4346ZM92.0713 106.744C92.0713 104.913 93.6826 104.503 95.0596 104.4C95.5649 104.364 96.854 104.298 97.2129 104.283V103.639C97.2129 102.628 96.6123 102.042 95.4111 102.042C94.4004 102.042 93.7998 102.511 93.624 103.111H92.3057C92.4668 101.837 93.7119 100.943 95.4697 100.943C96.5098 100.943 98.458 101.251 98.458 103.756V109H97.2129V107.916H97.1543C96.8906 108.458 96.1582 109.19 94.7812 109.19C93.2725 109.19 92.0713 108.297 92.0713 106.744ZM93.3311 106.803C93.3311 107.638 94.0342 108.062 95.001 108.062C96.4219 108.062 97.2129 107.11 97.2129 106.114V105.309L95.2061 105.455C94.0635 105.528 93.3311 105.938 93.3311 106.803ZM101.739 98.3945V109H100.479V98.3945H101.739ZM107.086 109.161C104.786 109.161 103.365 107.535 103.365 105.089C103.365 102.643 104.801 100.943 106.969 100.943C108.639 100.943 110.396 101.969 110.396 104.913V105.44H104.625C104.684 107.125 105.665 108.048 107.086 108.048C108.038 108.048 108.639 107.638 108.932 107.14H110.279C109.898 108.341 108.727 109.161 107.086 109.161ZM104.64 104.371H109.122C109.122 103.038 108.272 102.057 106.969 102.057C105.592 102.057 104.713 103.141 104.64 104.371ZM116.461 103.111C116.285 102.452 115.787 102.013 114.85 102.013C113.868 102.013 113.165 102.54 113.165 103.214C113.165 103.741 113.59 104.107 114.527 104.327L115.714 104.62C117.135 104.957 117.838 105.66 117.838 106.773C117.838 108.15 116.71 109.161 114.718 109.161C112.931 109.161 111.861 108.37 111.656 106.92H112.975C113.121 107.696 113.692 108.062 114.688 108.062C115.816 108.062 116.534 107.594 116.534 106.847C116.534 106.29 116.139 105.909 115.23 105.704L114.029 105.426C112.638 105.104 111.905 104.342 111.905 103.287C111.905 101.925 113.092 100.943 114.85 100.943C116.49 100.943 117.53 101.822 117.691 103.111H116.461ZM124.723 107.608C123.258 107.608 122.188 106.422 122.188 104.518C122.188 102.628 123.272 101.441 124.737 101.441C125.792 101.441 126.231 102.115 126.407 102.452H126.48V101.559H127.594V105.836C127.608 106.407 127.857 106.686 128.326 106.686C129.234 106.686 129.835 105.631 129.85 104.107C129.864 101.339 127.857 99.5371 125.06 99.5371C122.159 99.5518 120.284 101.793 120.284 104.518C120.284 107.491 121.91 109.542 125.001 109.513C126.026 109.498 126.7 109.439 127.594 109.19V110.187C126.832 110.392 125.968 110.523 125.001 110.523C121.427 110.523 119.229 108.238 119.229 104.518C119.215 101.061 121.646 98.5264 125.06 98.5264C128.561 98.5264 130.919 100.914 130.904 104.063C130.904 106.334 129.732 107.667 128.253 107.667C127.33 107.667 126.634 107.147 126.583 106.466H126.48C126.305 106.788 125.865 107.608 124.723 107.608ZM124.913 106.539C125.953 106.539 126.48 105.719 126.495 104.503C126.48 103.316 125.968 102.511 124.913 102.511C123.888 102.511 123.331 103.39 123.331 104.503C123.331 105.646 123.902 106.539 124.913 106.539ZM132.677 109V101.046H133.893V102.291H133.995C134.332 101.441 135.094 100.943 136.134 100.943C137.174 100.943 137.877 101.441 138.258 102.291H138.346C138.756 101.471 139.591 100.943 140.733 100.943C142.154 100.943 143.165 101.808 143.165 103.683V109H141.905V103.697C141.905 102.525 141.158 102.071 140.294 102.071C139.181 102.071 138.551 102.818 138.551 103.829V109H137.276V103.565C137.276 102.672 136.632 102.071 135.724 102.071C134.771 102.071 133.937 102.877 133.937 104.034V109H132.677ZM144.806 106.744C144.806 104.913 146.417 104.503 147.794 104.4C148.299 104.364 149.588 104.298 149.947 104.283V103.639C149.947 102.628 149.347 102.042 148.146 102.042C147.135 102.042 146.534 102.511 146.358 103.111H145.04C145.201 101.837 146.446 100.943 148.204 100.943C149.244 100.943 151.192 101.251 151.192 103.756V109H149.947V107.916H149.889C149.625 108.458 148.893 109.19 147.516 109.19C146.007 109.19 144.806 108.297 144.806 106.744ZM146.065 106.803C146.065 107.638 146.769 108.062 147.735 108.062C149.156 108.062 149.947 107.11 149.947 106.114V105.309L147.94 105.455C146.798 105.528 146.065 105.938 146.065 106.803ZM154.474 104.225V109H153.214V101.046H154.43V102.291H154.532C154.913 101.485 155.646 100.943 156.861 100.943C158.473 100.943 159.542 101.925 159.542 103.946V109H158.282V104.034C158.282 102.804 157.608 102.071 156.48 102.071C155.323 102.071 154.474 102.848 154.474 104.225ZM161.563 109V98.3945H162.823V104.562H162.97L166.412 101.046H167.965L164.61 104.444L168.214 109H166.617L163.673 105.25L162.823 106.026V109H161.563ZM174.337 105.733V101.046H175.582V109H174.337V107.652H174.249C173.868 108.458 173.092 109.103 171.891 109.103C170.382 109.103 169.312 108.121 169.312 106.1V101.046H170.572V106.012C170.572 107.154 171.29 107.887 172.301 107.887C173.194 107.887 174.337 107.213 174.337 105.733ZM178.497 109.088C177.984 109.088 177.545 108.663 177.56 108.136C177.545 107.623 177.984 107.198 178.497 107.198C179.01 107.198 179.435 107.623 179.435 108.136C179.435 108.663 179.01 109.088 178.497 109.088ZM184.664 109.161C182.408 109.161 181.031 107.447 181.031 105.06C181.031 102.643 182.467 100.943 184.635 100.943C186.334 100.943 187.594 101.939 187.799 103.448H186.539C186.363 102.716 185.719 102.057 184.664 102.057C183.243 102.057 182.291 103.229 182.291 105.016C182.291 106.861 183.214 108.033 184.664 108.033C185.602 108.033 186.319 107.535 186.539 106.656H187.799C187.594 108.077 186.437 109.161 184.664 109.161ZM192.604 109.161C190.436 109.161 188.971 107.535 188.971 105.06C188.971 102.584 190.436 100.943 192.604 100.943C194.757 100.943 196.207 102.584 196.207 105.06C196.207 107.535 194.757 109.161 192.604 109.161ZM192.604 108.048C194.2 108.048 194.947 106.642 194.947 105.06C194.947 103.478 194.2 102.057 192.604 102.057C190.978 102.057 190.23 103.478 190.23 105.06C190.23 106.642 190.978 108.048 192.604 108.048ZM198.756 109.088C198.243 109.088 197.804 108.663 197.818 108.136C197.804 107.623 198.243 107.198 198.756 107.198C199.269 107.198 199.693 107.623 199.693 108.136C199.693 108.663 199.269 109.088 198.756 109.088ZM201.671 109V98.3945H202.931V104.562H203.077L206.52 101.046H208.072L204.718 104.444L208.321 109H206.725L203.78 105.25L202.931 106.026V109H201.671ZM209.42 109V101.046H210.636V102.262H210.724C211.017 101.456 211.837 100.914 212.774 100.914C212.965 100.914 213.287 100.929 213.434 100.943V102.218C213.346 102.188 212.994 102.13 212.672 102.13C211.529 102.13 210.68 102.921 210.68 103.99V109H209.42Z" fill="#222222"/>
<path d="M84.8936 86V75.3945H92.0127V77.2109H87.0908V79.7891H91.6465V81.6055H87.0908V84.1836H92.0273V86H84.8936ZM98.6191 79.833V81.5615H93.7852V79.833H98.6191ZM100.465 75.3945H103.189L106.134 82.5869H106.251L109.195 75.3945H111.92V86H109.781V79.0566H109.693L106.925 85.9561H105.46L102.691 79.0273H102.604V86H100.465V75.3945ZM113.282 83.7734C113.282 82.001 114.718 81.415 116.241 81.3271C116.812 81.2905 117.882 81.2393 118.219 81.2246V80.5801C118.204 79.9209 117.75 79.5254 116.944 79.5254C116.212 79.5254 115.743 79.8623 115.626 80.4043H113.561C113.692 79.0273 114.894 77.9434 117.003 77.9434C118.731 77.9434 120.372 78.7197 120.372 80.6387V86H118.321V84.9014H118.263C117.867 85.6338 117.12 86.1465 115.934 86.1465C114.41 86.1465 113.282 85.3555 113.282 83.7734ZM115.362 83.7148C115.362 84.3301 115.86 84.6523 116.549 84.6523C117.53 84.6523 118.233 83.9932 118.219 83.1582V82.5723C117.889 82.5869 116.966 82.6382 116.593 82.6748C115.846 82.748 115.362 83.0996 115.362 83.7148ZM122.027 86V78.0459H124.195V86H122.027ZM123.111 77.0059C122.452 77.0059 121.925 76.5078 121.925 75.9072C121.925 75.292 122.452 74.7939 123.111 74.7939C123.756 74.7939 124.283 75.292 124.283 75.9072C124.283 76.5078 123.756 77.0059 123.111 77.0059ZM128.048 75.3945V86H125.88V75.3945H128.048Z" fill="#222222"/>
<circle cx="48" cy="92" r="18" fill="#173F95"/>
<path d="M54.7692 86H41.2308C40.9043 86 40.5913 86.1297 40.3605 86.3605C40.1297 86.5913 40 86.9043 40 87.2308V97.6923C40 98.0187 40.1297 98.3318 40.3605 98.5626C40.5913 98.7934 40.9043 98.9231 41.2308 98.9231H54.7692C55.0957 98.9231 55.4087 98.7934 55.6395 98.5626C55.8703 98.3318 56 98.0187 56 97.6923V87.2308C56 86.9043 55.8703 86.5913 55.6395 86.3605C55.4087 86.1297 55.0957 86 54.7692 86Z" stroke="white" stroke-width="1.5" stroke-linecap="round" stroke-linejoin="round"/>
<path d="M40 87.5391L47.2123 91.8763C47.4338 92.0068 47.712 92.0769 48 92.0769C48.288 92.0769 48.5662 92.0068 48.7877 91.8763L56 87.5391" stroke="white" stroke-width="1.5" stroke-linecap="round" stroke-linejoin="round"/>
<path d="M87.2666 319L84.2344 308.395H86.6367L88.4238 315.807H88.5117L90.46 308.395H92.5254L94.4736 315.821H94.5615L96.3486 308.395H98.751L95.7188 319H93.5654L91.5439 311.998H91.4561L89.4199 319H87.2666ZM98.5898 316.773C98.5898 315.001 100.025 314.415 101.549 314.327C102.12 314.291 103.189 314.239 103.526 314.225V313.58C103.512 312.921 103.058 312.525 102.252 312.525C101.52 312.525 101.051 312.862 100.934 313.404H98.8682C99 312.027 100.201 310.943 102.311 310.943C104.039 310.943 105.68 311.72 105.68 313.639V319H103.629V317.901H103.57C103.175 318.634 102.428 319.146 101.241 319.146C99.7178 319.146 98.5898 318.355 98.5898 316.773ZM100.67 316.715C100.67 317.33 101.168 317.652 101.856 317.652C102.838 317.652 103.541 316.993 103.526 316.158V315.572C103.197 315.587 102.274 315.638 101.9 315.675C101.153 315.748 100.67 316.1 100.67 316.715ZM107.335 319V311.046H109.43V312.423H109.518C109.811 311.441 110.543 310.929 111.437 310.929C111.656 310.929 111.935 310.958 112.125 311.002V312.936C111.92 312.877 111.51 312.818 111.202 312.818C110.221 312.818 109.503 313.507 109.503 314.474V319H107.335ZM116.534 319.161C114.103 319.161 112.608 317.579 112.608 315.06C112.608 312.599 114.117 310.943 116.446 310.943C118.541 310.943 120.182 312.262 120.182 314.972V315.587H114.747C114.747 316.788 115.465 317.535 116.578 317.535C117.311 317.535 117.838 317.213 118.058 316.729H120.123C119.815 318.194 118.497 319.161 116.534 319.161ZM114.747 314.225H118.131C118.131 313.258 117.457 312.569 116.49 312.569C115.494 312.569 114.784 313.309 114.747 314.225ZM123.712 314.4V319H121.544V308.395H123.653V312.438H123.741C124.107 311.515 124.913 310.943 126.114 310.943C127.77 310.943 128.868 312.057 128.868 313.932V319H126.7V314.312C126.7 313.331 126.173 312.745 125.265 312.745C124.356 312.745 123.712 313.346 123.712 314.4ZM134.112 319.161C131.71 319.161 130.216 317.506 130.216 315.045C130.216 312.584 131.71 310.943 134.112 310.943C136.515 310.943 138.023 312.584 138.023 315.045C138.023 317.506 136.515 319.161 134.112 319.161ZM134.127 317.477C135.24 317.477 135.812 316.437 135.812 315.045C135.812 313.639 135.24 312.599 134.127 312.599C132.999 312.599 132.413 313.639 132.413 315.045C132.413 316.437 132.999 317.477 134.127 317.477ZM144.483 315.616V311.046H146.651V319H144.571V317.564H144.483C144.117 318.487 143.268 319.103 142.066 319.103C140.47 319.103 139.386 317.975 139.386 316.114V311.046H141.554V315.733C141.554 316.671 142.096 317.271 142.945 317.271C143.736 317.271 144.483 316.7 144.483 315.616ZM152.877 313.404C152.789 312.848 152.291 312.481 151.573 312.481C150.87 312.481 150.328 312.818 150.343 313.302C150.328 313.653 150.621 313.932 151.368 314.093L152.789 314.386C154.327 314.708 155.074 315.396 155.089 316.539C155.074 318.106 153.668 319.161 151.559 319.161C149.405 319.161 148.146 318.194 147.97 316.642H150.152C150.255 317.271 150.768 317.594 151.559 317.594C152.35 317.594 152.877 317.271 152.877 316.759C152.877 316.349 152.54 316.1 151.793 315.938L150.475 315.675C148.966 315.382 148.175 314.591 148.189 313.419C148.175 311.896 149.493 310.943 151.544 310.943C153.551 310.943 154.796 311.896 154.913 313.404H152.877ZM160.025 319.161C157.594 319.161 156.1 317.579 156.1 315.06C156.1 312.599 157.608 310.943 159.938 310.943C162.032 310.943 163.673 312.262 163.673 314.972V315.587H158.238C158.238 316.788 158.956 317.535 160.069 317.535C160.802 317.535 161.329 317.213 161.549 316.729H163.614C163.307 318.194 161.988 319.161 160.025 319.161ZM158.238 314.225H161.622C161.622 313.258 160.948 312.569 159.981 312.569C158.985 312.569 158.275 313.309 158.238 314.225Z" fill="#222222"/>
<path d="M89.1123 333.665C89.1123 336.023 90.6211 338.396 92.5107 339.261L91.8223 340.198C90.3428 339.437 89.1196 337.876 88.541 336.023C87.9624 337.972 86.7393 339.642 85.2598 340.433L84.5127 339.51C86.417 338.572 87.9404 336.067 87.9404 333.665V331.292H89.1123V333.665ZM95.3232 330.164V343.216H94.1807V335.555H91.0898V334.617H94.1807V330.164H95.3232ZM103.424 330.325C106.324 330.325 108.023 331.131 108.023 332.581C108.023 334.046 106.324 334.837 103.424 334.852C100.523 334.837 98.8096 334.046 98.8096 332.581C98.8096 331.131 100.523 330.325 103.424 330.325ZM103.424 331.204C101.256 331.219 99.9961 331.717 100.011 332.581C99.9961 333.475 101.256 333.958 103.424 333.973C105.577 333.958 106.852 333.475 106.852 332.581C106.852 331.717 105.577 331.219 103.424 331.204ZM109.356 335.716V336.639H103.98V337.869H107.833V340.784H100.099V342.132H108.229V343.04H98.9561V339.935H106.705V338.748H98.9268V337.869H102.838V336.639H97.4912V335.716H109.356ZM115.084 333.665C115.069 336.038 116.695 338.44 118.614 339.305L117.911 340.213C116.432 339.488 115.15 337.957 114.527 336.097C113.919 338.067 112.638 339.708 111.114 340.477L110.382 339.51C112.315 338.616 113.927 336.141 113.941 333.665V331.292H115.084V333.665ZM121.192 330.164V343.216H120.035V330.164H121.192ZM133.673 334.72V336.639H139.049V337.576H127.184V336.639H132.545V334.72H133.673ZM133.688 330.984C133.688 332.713 136.031 334.163 138.331 334.485L137.862 335.408C135.885 335.064 133.929 334.017 133.116 332.508C132.296 334.024 130.333 335.064 128.341 335.408L127.901 334.485C130.201 334.163 132.53 332.713 132.53 330.984V330.369H133.688V330.984ZM133.116 338.66C135.914 338.66 137.584 339.466 137.599 340.916C137.584 342.366 135.914 343.157 133.116 343.157C130.289 343.157 128.619 342.366 128.619 340.916C128.619 339.466 130.289 338.66 133.116 338.66ZM133.116 339.568C131.007 339.568 129.776 340.052 129.791 340.916C129.776 341.766 131.007 342.264 133.116 342.264C135.196 342.264 136.441 341.766 136.441 340.916C136.441 340.052 135.196 339.568 133.116 339.568ZM147.633 331.585V332.537H146.183V338.807C146.886 338.755 147.582 338.697 148.248 338.616L148.307 339.466C145.553 339.905 142.433 339.949 140.133 339.964L139.986 338.982L141.744 338.968V332.537H140.309V331.585H147.633ZM150.226 330.164V335.394H152.408V336.36H150.226V343.187H149.083V330.164H150.226ZM142.857 338.953C143.583 338.938 144.337 338.909 145.084 338.865V332.537H142.857V338.953ZM163.409 331.014V332.156C163.409 333.394 163.409 334.734 163.043 336.609H164.977V337.562H159.601V343.216H158.443V337.562H153.111V336.609H161.871C162.267 334.734 162.267 333.365 162.267 332.156V331.966H154.605V331.014H163.409ZM181.705 336.609V337.532H176.329V338.851C178.812 338.953 180.24 339.708 180.255 341.004C180.24 342.41 178.6 343.157 175.772 343.157C172.945 343.157 171.275 342.41 171.275 341.004C171.275 339.708 172.718 338.96 175.201 338.851V337.532H169.84V336.609H181.705ZM176.329 330.135V331.438H180.504V332.376H176.417C176.527 333.819 178.578 334.786 181.002 335.013L180.65 335.906C178.49 335.679 176.563 334.91 175.772 333.592C174.974 334.91 173.041 335.679 170.895 335.906L170.528 335.013C172.953 334.786 175.003 333.819 175.143 332.376H171.07V331.438H175.201V330.135H176.329ZM175.772 339.715C173.663 339.715 172.433 340.184 172.447 341.004C172.433 341.824 173.663 342.278 175.772 342.264C177.853 342.278 179.098 341.824 179.098 341.004C179.098 340.184 177.853 339.715 175.772 339.715ZM189.601 331.307V337.342H183.492V331.307H189.601ZM184.62 332.259V336.419H188.473V332.259H184.62ZM193.556 330.179V339.539H192.413V330.179H193.556ZM193.966 341.795V342.747H185.147V338.631H186.29V341.795H193.966ZM207.691 340.608V341.575H195.768V340.608H201.129V338.147H197.262V334.134H205.055V332.083H197.232V331.131H206.183V335.071H198.404V337.195H206.49V338.147H202.257V340.608H207.691ZM216.715 331.395V342H215.382V332.771H215.323L212.745 334.485V333.152L215.382 331.395H216.715ZM223.014 342.146C220.655 342.146 219.308 340.169 219.308 336.697C219.308 333.255 220.685 331.248 223.014 331.248C225.343 331.248 226.72 333.255 226.72 336.697C226.72 340.169 225.357 342.146 223.014 342.146ZM223.014 340.975C224.537 340.975 225.431 339.437 225.431 336.697C225.431 333.958 224.537 332.391 223.014 332.391C221.49 332.391 220.582 333.958 220.582 336.697C220.582 339.437 221.476 340.975 223.014 340.975ZM229.767 341.019L228.624 345.003H227.54L228.346 341.019H229.767ZM94.6055 348.164V353.467H96.7148V354.434H94.6055V361.187H93.4629V348.164H94.6055ZM91.2363 349.57C91.2363 353.262 89.5078 356.616 85.2598 358.711L84.6152 357.803C87.9844 356.125 89.8154 353.621 90.0791 350.537H85.2158V349.57H91.2363ZM109.371 354.741V355.679H97.4912V354.741H109.371ZM108.009 352.354V353.306H99V348.735H107.892V349.673H100.143V352.354H108.009ZM108.111 359.927V360.894H99.0293V357.085H100.172V359.927H108.111ZM117.94 349.585V350.537H116.49V356.807C117.193 356.755 117.889 356.697 118.556 356.616L118.614 357.466C115.86 357.905 112.74 357.949 110.44 357.964L110.294 356.982L112.052 356.968V350.537H110.616V349.585H117.94ZM120.533 348.164V353.394H122.716V354.36H120.533V361.187H119.391V348.164H120.533ZM113.165 356.953C113.89 356.938 114.645 356.909 115.392 356.865V350.537H113.165V356.953ZM134.156 348.164V361.216H132.999V348.164H134.156ZM127.228 349.175C129.161 349.189 130.553 350.947 130.553 353.716C130.553 356.484 129.161 358.242 127.228 358.242C125.279 358.242 123.902 356.484 123.902 353.716C123.902 350.947 125.279 349.189 127.228 349.175ZM127.228 350.2C125.924 350.215 125.016 351.592 125.016 353.716C125.016 355.84 125.924 357.217 127.228 357.217C128.531 357.217 129.439 355.84 129.439 353.716C129.439 351.592 128.531 350.215 127.228 350.2ZM148.307 358.491V359.458H136.383V358.491H148.307ZM138.946 349.102V351.533H145.714V349.102H146.842V355.884H137.789V349.102H138.946ZM138.946 354.961H145.714V352.456H138.946V354.961ZM163.57 352.266V353.101H154.679V348.428H163.497V349.277H155.836V350.317H163.146V351.138H155.836V352.266H163.57ZM164.977 354.082V354.961H159.601V356.104H163.453V358.916H155.719V360.176H163.849V361.04H154.576V358.096H162.325V356.953H154.547V356.104H158.458V354.961H153.126V354.082H164.977ZM177.955 354.609V355.532H166.075V354.609H171.451V353.086H167.584V348.779H176.476V349.702H168.712V352.148H176.563V353.086H172.564V354.609H177.955ZM172.008 356.484C174.806 356.484 176.476 357.334 176.49 358.828C176.476 360.337 174.806 361.172 172.008 361.187C169.195 361.172 167.511 360.337 167.511 358.828C167.511 357.334 169.195 356.484 172.008 356.484ZM172.008 357.393C169.913 357.393 168.668 357.935 168.683 358.828C168.668 359.736 169.913 360.264 172.008 360.264C174.073 360.264 175.333 359.736 175.333 358.828C175.333 357.935 174.073 357.393 172.008 357.393ZM183.609 360L188.473 350.64V350.566H182.862V349.395H189.835V350.625L184.986 360H183.609ZM202.945 354.785V355.737H191.08V354.785H202.945ZM197.569 348.135V349.438H201.744V350.376H197.643C197.738 351.819 199.803 352.815 202.242 353.042L201.891 353.936C199.73 353.708 197.804 352.932 197.013 351.621C196.214 352.932 194.281 353.708 192.135 353.936L191.769 353.042C194.208 352.815 196.273 351.819 196.383 350.376H192.311V349.438H196.441V348.135H197.569ZM197.013 356.851C199.84 356.851 201.48 357.612 201.495 359.004C201.48 360.41 199.84 361.157 197.013 361.157C194.186 361.157 192.516 360.41 192.516 359.004C192.516 357.612 194.186 356.851 197.013 356.851ZM197.013 357.715C194.903 357.715 193.673 358.184 193.688 359.004C193.673 359.824 194.903 360.278 197.013 360.264C199.093 360.278 200.338 359.824 200.338 359.004C200.338 358.184 199.093 357.715 197.013 357.715ZM208.614 360L213.478 350.64V350.566H207.867V349.395H214.84V350.625L209.991 360H208.614ZM217.198 360H215.821L219.703 349.395H221.095L224.977 360H223.585L222.53 357.012H218.268L217.198 360ZM218.663 355.854H222.12L220.436 351.108H220.348L218.663 355.854ZM225.973 357.832V356.748L230.748 349.395H232.374V356.675H233.854V357.832H232.374V360H231.114V357.832H225.973ZM227.394 356.675H231.114V351.064H230.982L227.394 356.587V356.675ZM239.259 360.146C237.149 360.146 235.641 359.019 235.567 357.334H236.9C236.974 358.345 237.984 358.975 239.244 358.975C240.636 358.975 241.661 358.213 241.661 357.114C241.661 355.957 240.738 355.137 239.083 355.137H238.219V353.979H239.083C240.372 353.979 241.266 353.262 241.266 352.163C241.266 351.108 240.489 350.391 239.288 350.391C238.16 350.391 237.12 351.021 237.062 352.061H235.787C235.86 350.376 237.413 349.248 239.303 349.248C241.324 349.248 242.555 350.566 242.54 352.09C242.555 353.291 241.852 354.185 240.738 354.492V354.565C242.115 354.785 242.965 355.767 242.95 357.114C242.965 358.857 241.368 360.146 239.259 360.146ZM255.636 350.098V351.05H244.972V350.098H249.747V348.384H250.875V350.098H255.636ZM256.31 358.711V359.663H244.386V358.711H249.747V356.88C247.433 356.755 246.026 355.854 246.041 354.39C246.026 352.837 247.667 351.929 250.318 351.943C252.94 351.929 254.596 352.837 254.596 354.39C254.596 355.854 253.175 356.755 250.875 356.88V358.711H256.31ZM250.318 352.852C248.37 352.852 247.184 353.423 247.198 354.39C247.184 355.386 248.37 355.942 250.318 355.957C252.237 355.942 253.424 355.386 253.424 354.39C253.424 353.423 252.237 352.852 250.318 352.852Z" fill="black"/>
<circle cx="48" cy="325" r="18" fill="#173F95"/>
<path d="M55.5394 323.066C55.4448 323.067 55.3514 323.045 55.2662 323.004L48.0891 319.341L40.9119 322.979C40.7588 323.052 40.5832 323.06 40.4236 323.003C40.2641 322.946 40.1338 322.828 40.0614 322.675C39.9889 322.522 39.9803 322.346 40.0373 322.187C40.0944 322.027 40.2124 321.897 40.3656 321.825L48.0891 318L55.8126 321.825C55.9754 321.863 56.1167 321.963 56.2058 322.105C56.295 322.246 56.3248 322.417 56.2889 322.58C56.253 322.743 56.1542 322.886 56.0139 322.977C55.8736 323.068 55.7032 323.1 55.5394 323.066ZM44.9848 329.275H41.2596V333H44.9848V329.275ZM49.9517 329.275H46.2265V333H49.9517V329.275ZM54.9186 329.275H51.1934V333H54.9186V329.275ZM52.4351 324.308H48.71V328.033H52.4351V324.308ZM47.4682 324.308H43.7431V328.033H47.4682V324.308Z" fill="white"/>
<line x1="30" y1="399.5" x2="362" y2="399.5" stroke="#D9D8D6"/>
</svg>
