<svg width="1920" height="415" viewBox="0 0 1920 415" fill="none" xmlns="http://www.w3.org/2000/svg">
<rect width="1920" height="415" fill="#F7F7F7"/>
<path d="M635.594 132H621.18V89.5781H635.828C648.484 89.5781 656.16 97.5469 656.16 110.73C656.16 123.973 648.484 132 635.594 132ZM628.797 125.379H635.184C644.031 125.379 648.543 120.516 648.543 110.73C648.543 101.004 644.031 96.1992 635.418 96.1992H628.797V125.379ZM662.547 132V100.184H670.047V132H662.547ZM666.355 95.6719C664.012 95.6719 662.02 93.8555 662.02 91.5703C662.02 89.3438 664.012 87.5273 666.355 87.5273C668.758 87.5273 670.691 89.3438 670.691 91.5703C670.691 93.8555 668.758 95.6719 666.355 95.6719ZM695.242 109.266C694.773 106.863 692.781 105.34 689.617 105.34C686.395 105.34 684.051 106.922 684.109 109.09C684.051 110.73 685.398 111.961 688.621 112.723L694.012 113.836C700.047 115.184 702.918 117.938 702.977 122.508C702.918 128.484 697.703 132.645 689.383 132.645C681.297 132.645 676.492 129.012 675.73 122.918H683.348C683.816 125.613 685.926 126.961 689.383 126.961C692.957 126.961 695.359 125.496 695.359 123.152C695.359 121.336 693.895 120.164 690.73 119.461L685.633 118.348C679.715 117.176 676.668 114.07 676.668 109.5C676.668 103.641 681.707 99.7734 689.5 99.7734C697.117 99.7734 701.805 103.465 702.332 109.266H695.242ZM722.547 132.645C713.055 132.645 707.312 125.848 707.312 116.238C707.312 106.512 713.23 99.7734 722.547 99.7734C730.281 99.7734 735.672 104.285 736.199 111.141H729.051C728.465 108.094 726.238 105.75 722.605 105.75C717.977 105.75 714.871 109.676 714.871 116.062C714.871 122.625 717.918 126.551 722.605 126.551C725.945 126.551 728.406 124.617 729.051 121.16H736.199C735.613 127.898 730.516 132.645 722.547 132.645ZM755.711 132.645C746.453 132.645 740.477 126.082 740.477 116.238C740.477 106.336 746.453 99.7734 755.711 99.7734C765.027 99.7734 770.945 106.336 770.945 116.238C770.945 126.082 765.027 132.645 755.711 132.645ZM755.77 126.668C760.867 126.668 763.387 122.039 763.387 116.18C763.387 110.379 760.867 105.691 755.77 105.691C750.555 105.691 748.035 110.379 748.035 116.18C748.035 122.039 750.555 126.668 755.77 126.668ZM804.051 100.184L792.684 132H784.48L773.113 100.184H781.082L788.406 123.855H788.758L796.141 100.184H804.051ZM821.746 132.645C812.137 132.645 806.277 126.258 806.277 116.297C806.277 106.453 812.254 99.7734 821.336 99.7734C829.129 99.7734 835.867 104.637 835.867 115.828V118.172H813.66C813.748 123.592 816.941 126.785 821.805 126.785C825.086 126.785 827.312 125.379 828.25 123.504H835.574C834.227 129.012 829.129 132.645 821.746 132.645ZM813.719 113.074H828.719C828.66 108.738 825.789 105.574 821.453 105.574C816.941 105.574 813.953 109.002 813.719 113.074ZM841.668 132V100.184H848.934V105.457H849.285C850.398 101.824 853.504 99.7148 857.137 99.7148C857.957 99.7148 859.129 99.7734 859.832 99.8906V106.805C859.188 106.57 857.605 106.336 856.375 106.336C852.215 106.336 849.168 109.207 849.168 113.25V132H841.668ZM887.84 132L875.887 89.5781H884.09L891.766 120.809H892.176L900.32 89.5781H907.82L916.023 120.867H916.375L924.051 89.5781H932.254L920.301 132H912.742L904.246 102.176H903.953L895.398 132H887.84ZM944.266 113.367V132H936.766V89.5781H944.09V105.574H944.5C945.965 102 949.012 99.7734 953.934 99.7734C960.555 99.7734 964.891 104.051 964.891 111.727V132H957.449V112.898C957.449 108.562 955.105 106.102 951.18 106.102C947.137 106.102 944.266 108.738 944.266 113.367ZM970.516 123.035C970.516 115.887 976.434 113.777 982.352 113.426C984.549 113.279 989.119 113.016 990.496 112.957V110.438C990.496 107.273 988.445 105.457 984.754 105.457C981.414 105.457 979.363 106.98 978.777 109.266H971.57C972.098 103.875 976.961 99.7734 984.93 99.7734C990.965 99.7734 997.938 102.234 997.938 110.73V132H990.789V127.605H990.555C989.148 130.301 986.16 132.645 981.18 132.645C975.086 132.645 970.516 129.305 970.516 123.035ZM977.723 122.977C977.723 125.73 979.949 127.137 983.113 127.137C987.625 127.137 990.555 124.148 990.555 120.574V117.938L983.523 118.406C979.949 118.699 977.723 120.164 977.723 122.977ZM1020.85 100.184V105.926H1014.58V122.449C1014.58 125.496 1016.1 126.141 1017.98 126.141C1018.86 126.141 1020.32 126.082 1021.26 126.023V132.117C1020.38 132.293 1018.91 132.41 1017.04 132.41C1011.41 132.41 1007.08 129.656 1007.14 123.68V105.926H1002.57V100.184H1007.14V92.5664H1014.58V100.184H1020.85ZM1055.59 132H1041.18V89.5781H1055.83C1068.48 89.5781 1076.16 97.5469 1076.16 110.73C1076.16 123.973 1068.48 132 1055.59 132ZM1048.8 125.379H1055.18C1064.03 125.379 1068.54 120.516 1068.54 110.73C1068.54 101.004 1064.03 96.1992 1055.42 96.1992H1048.8V125.379ZM1082.55 132V100.184H1089.81V105.457H1090.16C1091.28 101.824 1094.38 99.7148 1098.02 99.7148C1098.84 99.7148 1100.01 99.7734 1100.71 99.8906V106.805C1100.07 106.57 1098.48 106.336 1097.25 106.336C1093.09 106.336 1090.05 109.207 1090.05 113.25V132H1082.55ZM1105.16 132V100.184H1112.66V132H1105.16ZM1108.97 95.6719C1106.63 95.6719 1104.64 93.8555 1104.64 91.5703C1104.64 89.3438 1106.63 87.5273 1108.97 87.5273C1111.38 87.5273 1113.31 89.3438 1113.31 91.5703C1113.31 93.8555 1111.38 95.6719 1108.97 95.6719ZM1148.23 100.184L1136.86 132H1128.66L1117.29 100.184H1125.26L1132.59 123.855H1132.94L1140.32 100.184H1148.23ZM1165.93 132.645C1156.32 132.645 1150.46 126.258 1150.46 116.297C1150.46 106.453 1156.43 99.7734 1165.52 99.7734C1173.31 99.7734 1180.05 104.637 1180.05 115.828V118.172H1157.84C1157.93 123.592 1161.12 126.785 1165.98 126.785C1169.27 126.785 1171.49 125.379 1172.43 123.504H1179.75C1178.41 129.012 1173.31 132.645 1165.93 132.645ZM1157.9 113.074H1172.9C1172.84 108.738 1169.97 105.574 1165.63 105.574C1161.12 105.574 1158.13 109.002 1157.9 113.074ZM1203.89 109.266C1203.43 106.863 1201.43 105.34 1198.27 105.34C1195.05 105.34 1192.7 106.922 1192.76 109.09C1192.7 110.73 1194.05 111.961 1197.27 112.723L1202.66 113.836C1208.7 115.184 1211.57 117.938 1211.63 122.508C1211.57 128.484 1206.36 132.645 1198.04 132.645C1189.95 132.645 1185.14 129.012 1184.38 122.918H1192C1192.47 125.613 1194.58 126.961 1198.04 126.961C1201.61 126.961 1204.01 125.496 1204.01 123.152C1204.01 121.336 1202.55 120.164 1199.38 119.461L1194.29 118.348C1188.37 117.176 1185.32 114.07 1185.32 109.5C1185.32 103.641 1190.36 99.7734 1198.15 99.7734C1205.77 99.7734 1210.46 103.465 1210.98 109.266H1203.89ZM1258.68 89.5781H1266.36V117.293C1266.36 126.375 1259.44 132.645 1249.13 132.645C1238.76 132.645 1231.9 126.375 1231.9 117.293V89.5781H1239.52V116.648C1239.52 121.98 1243.27 125.848 1249.13 125.848C1254.99 125.848 1258.68 121.98 1258.68 116.648V89.5781ZM1291.9 109.266C1291.43 106.863 1289.44 105.34 1286.28 105.34C1283.05 105.34 1280.71 106.922 1280.77 109.09C1280.71 110.73 1282.06 111.961 1285.28 112.723L1290.67 113.836C1296.71 115.184 1299.58 117.938 1299.64 122.508C1299.58 128.484 1294.36 132.645 1286.04 132.645C1277.96 132.645 1273.15 129.012 1272.39 122.918H1280.01C1280.48 125.613 1282.59 126.961 1286.04 126.961C1289.62 126.961 1292.02 125.496 1292.02 123.152C1292.02 121.336 1290.55 120.164 1287.39 119.461L1282.29 118.348C1276.38 117.176 1273.33 114.07 1273.33 109.5C1273.33 103.641 1278.37 99.7734 1286.16 99.7734C1293.78 99.7734 1298.46 103.465 1298.99 109.266H1291.9Z" fill="#222222"/>
<path d="M709.969 195.922V197.773H701.391V204.992H699.211V197.773H690.75V195.922H709.969ZM700.312 184.789C704.742 184.789 707.789 186.594 707.789 189.453C707.789 192.289 704.742 194.07 700.312 194.07C695.859 194.07 692.836 192.289 692.836 189.453C692.836 186.594 695.859 184.789 700.312 184.789ZM700.312 186.57C697.195 186.594 695.109 187.672 695.133 189.453C695.109 191.211 697.195 192.289 700.312 192.289C703.43 192.289 705.516 191.211 705.516 189.453C705.516 187.672 703.43 186.594 700.312 186.57ZM728.953 183.992V205.039H726.727V183.992H728.953ZM722.531 185.891V193.555H714.984V198.148C718.383 198.137 721.359 197.984 724.875 197.398L725.086 199.227C721.359 199.859 718.195 200 714.492 200H712.711V191.773H720.258V187.695H712.688V185.891H722.531ZM739.102 185.492C742.43 185.469 744.797 187.531 744.82 190.484C744.797 193.438 742.43 195.5 739.102 195.5C735.797 195.5 733.359 193.438 733.383 190.484C733.359 187.531 735.797 185.469 739.102 185.492ZM739.102 187.414C737.062 187.414 735.562 188.633 735.586 190.484C735.562 192.336 737.062 193.555 739.102 193.555C741.141 193.555 742.641 192.336 742.641 190.484C742.641 188.633 741.141 187.414 739.102 187.414ZM749.625 183.992V205.039H747.398V183.992H749.625ZM732.375 198.664C736.195 198.664 741.492 198.617 746.086 197.961L746.25 199.578C741.492 200.492 736.406 200.516 732.656 200.516L732.375 198.664ZM776.32 184.016V199.93H774.094V197.914H769.875V196.344H774.094V184.016H776.32ZM776.836 202.742V204.547H761.672V198.383H763.875V202.742H776.836ZM758.766 193.602C762.656 193.578 767.883 193.531 772.359 192.969L772.5 194.562C770.707 194.855 768.82 195.055 766.969 195.172V199.273H764.742V195.289C762.703 195.383 760.746 195.395 759.047 195.383L758.766 193.602ZM765.633 184.812C768.703 184.812 770.836 186.289 770.836 188.516C770.836 190.742 768.703 192.172 765.633 192.172C762.516 192.172 760.406 190.742 760.406 188.516C760.406 186.289 762.516 184.812 765.633 184.812ZM765.633 186.477C763.758 186.453 762.492 187.25 762.516 188.516C762.492 189.758 763.758 190.531 765.633 190.531C767.438 190.531 768.703 189.758 768.727 188.516C768.703 187.25 767.438 186.453 765.633 186.477ZM798.773 194.211V195.992H779.602V194.211H788.109V191.984H781.992V184.953H796.406V186.711H784.195V190.203H796.547V191.984H790.266V194.211H798.773ZM789.164 197.352C793.688 197.352 796.406 198.734 796.406 201.172C796.406 203.609 793.688 204.969 789.164 204.992C784.617 204.969 781.875 203.609 781.875 201.172C781.875 198.734 784.617 197.352 789.164 197.352ZM789.164 199.086C785.953 199.086 784.125 199.836 784.125 201.172C784.125 202.508 785.953 203.258 789.164 203.234C792.328 203.258 794.18 202.508 794.18 201.172C794.18 199.836 792.328 199.086 789.164 199.086ZM810.352 185.258V191.375H803.414V194.281C807.07 194.293 809.062 194.211 811.43 193.766L811.641 195.57C809.086 196.016 806.93 196.086 802.734 196.086H801.211V189.688H808.125V187.039H801.188V185.258H810.352ZM817.852 184.016V196.93H815.625V193.227H811.688V191.445H815.625V188.844H811.688V187.062H815.625V184.016H817.852ZM817.852 197.984V205.016H815.625V199.789H803.602V197.984H817.852ZM830.648 184.344C835.383 184.344 838.148 185.609 838.148 187.953C838.148 190.297 835.383 191.586 830.648 191.586C825.914 191.586 823.148 190.297 823.148 187.953C823.148 185.609 825.914 184.344 830.648 184.344ZM830.648 185.984C827.297 185.984 825.445 186.711 825.469 187.953C825.445 189.242 827.297 189.922 830.648 189.922C834 189.922 835.852 189.242 835.852 187.953C835.852 186.711 834 185.984 830.648 185.984ZM840.234 192.875V194.656H821.086V192.875H840.234ZM837.82 196.273V201.195H825.586V203.07H838.406V204.781H823.406V199.578H835.617V197.938H823.383V196.273H837.82ZM858.352 185.234V187.086H850.828V189.383H857.953V191.164H850.828V193.602C854.684 193.59 856.98 193.508 859.664 193.016L859.898 194.797C857.016 195.289 854.555 195.383 850.242 195.359H848.602V185.234H858.352ZM864.188 197.352V204.734H850.781V197.352H864.188ZM852.961 199.109V202.93H861.984V199.109H852.961ZM864.188 183.992V189.102H867.234V190.953H864.188V196.32H861.961V183.992H864.188ZM885.141 185.305V187.156C885.141 189.148 885.141 191.305 884.555 194.305H887.578V196.133H879.07V205.016H876.82V196.133H868.43V194.305H882.305C882.938 191.316 882.938 189.113 882.938 187.156V187.133H870.773V185.305H885.141ZM905.531 183.992V192.5H908.906V194.352H905.531V204.992H903.328V183.992H905.531ZM901.5 187.273V189.102H889.055V187.273H894.234V184.273H896.461V187.273H901.5ZM895.359 190.648C898.359 190.648 900.562 192.664 900.586 195.523C900.562 198.406 898.359 200.398 895.359 200.422C892.336 200.398 890.133 198.406 890.133 195.523C890.133 192.664 892.336 190.648 895.359 190.648ZM895.359 192.477C893.578 192.477 892.242 193.719 892.266 195.523C892.242 197.352 893.578 198.57 895.359 198.547C897.141 198.57 898.453 197.352 898.453 195.523C898.453 193.719 897.141 192.477 895.359 192.477ZM926.906 186.008V188.07C926.906 190.672 926.906 193.578 926.109 197.867L923.859 197.633C924.68 193.578 924.68 190.602 924.68 188.07V187.812H911.93V186.008H926.906ZM929.062 200.305V202.156H909.914V200.305H917.203V192.898H919.406V200.305H929.062ZM934.43 201.383L932.555 207.852H930.562L931.805 201.383H934.43ZM953.297 185.844V195.641H943.477V185.844H953.297ZM945.656 187.648V193.883H951.117V187.648H945.656ZM959.156 183.969V190.25H962.203V192.125H959.156V199.367H956.93V183.969H959.156ZM960.047 202.742V204.547H945.844V197.891H948.07V202.742H960.047ZM980.18 185.258V187.18C980.18 189.371 980.18 191.797 979.453 195.219H982.547V197.023H974.109V204.969H971.883V197.023H963.398V195.219H977.273C977.59 193.848 977.789 192.617 977.906 191.492L965.438 192.125L965.156 190.203L978.023 189.805C978.07 188.867 978.07 188 978.07 187.18V187.062H965.766V185.258H980.18ZM1003.34 196.039V197.844H994.758V204.969H992.578V197.844H984.117V196.039H1003.34ZM1000.92 185.117V193.367H986.531V185.117H1000.92ZM988.711 186.898V191.633H998.695V186.898H988.711ZM1022.39 197.469V204.992H1020.16V199.227H1008.16V197.469H1022.39ZM1022.39 183.992V196.367H1020.16V193.484H1014.98C1014.01 194.633 1012.48 195.324 1010.7 195.312C1007.53 195.336 1005.19 193.227 1005.19 190.227C1005.19 187.273 1007.53 185.141 1010.7 185.164C1012.48 185.152 1014 185.844 1014.98 186.992H1020.16V183.992H1022.39ZM1010.7 187.039C1008.73 187.039 1007.32 188.352 1007.32 190.227C1007.32 192.148 1008.73 193.438 1010.7 193.438C1012.59 193.438 1014.02 192.148 1014.02 190.227C1014.02 188.352 1012.59 187.039 1010.7 187.039ZM1015.97 191.656H1020.16V188.82H1015.97C1016.09 189.266 1016.16 189.734 1016.16 190.227C1016.16 190.73 1016.09 191.211 1015.97 191.656ZM1032.47 185.492C1035.8 185.469 1038.16 187.531 1038.19 190.484C1038.16 193.438 1035.8 195.5 1032.47 195.5C1029.16 195.5 1026.73 193.438 1026.75 190.484C1026.73 187.531 1029.16 185.469 1032.47 185.492ZM1032.47 187.414C1030.43 187.414 1028.93 188.633 1028.95 190.484C1028.93 192.336 1030.43 193.555 1032.47 193.555C1034.51 193.555 1036.01 192.336 1036.01 190.484C1036.01 188.633 1034.51 187.414 1032.47 187.414ZM1042.99 183.992V205.039H1040.77V183.992H1042.99ZM1025.74 198.664C1029.56 198.664 1034.86 198.617 1039.45 197.961L1039.62 199.578C1034.86 200.492 1029.77 200.516 1026.02 200.516L1025.74 198.664ZM1069.62 183.992V205.039H1067.39V183.992H1069.62ZM1055.62 185.75V191.141H1061.27V185.75H1063.48V200H1053.4V185.75H1055.62ZM1055.62 198.172H1061.27V192.898H1055.62V198.172ZM1090.48 184.016V199.391H1088.25V191.492H1084.24V189.688H1088.25V184.016H1090.48ZM1091.04 202.742V204.547H1076.84V198.008H1079.06V202.742H1091.04ZM1080.49 188.258C1080.49 190.883 1082.39 193.508 1085.55 194.562L1084.41 196.344C1082.05 195.512 1080.3 193.824 1079.39 191.75C1078.48 194.059 1076.64 195.922 1074.14 196.812L1072.99 195.008C1076.23 193.906 1078.22 191.141 1078.22 188.258V187.438H1073.67V185.609H1084.99V187.438H1080.49V188.258ZM1103.27 184.344C1108.01 184.344 1110.77 185.609 1110.77 187.953C1110.77 190.297 1108.01 191.586 1103.27 191.586C1098.54 191.586 1095.77 190.297 1095.77 187.953C1095.77 185.609 1098.54 184.344 1103.27 184.344ZM1103.27 185.984C1099.92 185.984 1098.07 186.711 1098.09 187.953C1098.07 189.242 1099.92 189.922 1103.27 189.922C1106.62 189.922 1108.48 189.242 1108.48 187.953C1108.48 186.711 1106.62 185.984 1103.27 185.984ZM1112.86 192.875V194.656H1093.71V192.875H1112.86ZM1110.45 196.273V201.195H1098.21V203.07H1111.03V204.781H1096.03V199.578H1108.24V197.938H1096.01V196.273H1110.45ZM1136.84 184.016V190.25H1139.84V192.078H1136.84V198.148H1134.61V184.016H1136.84ZM1120.17 195.805C1121.8 195.805 1123.69 195.805 1125.66 195.734V194.328C1123.27 194.082 1121.74 192.957 1121.77 191.258C1121.74 189.336 1123.73 188.141 1126.76 188.164C1129.76 188.141 1131.75 189.336 1131.75 191.258C1131.75 192.945 1130.25 194.07 1127.88 194.328V195.664C1129.76 195.57 1131.66 195.418 1133.41 195.172L1133.6 196.766C1129.08 197.562 1124.11 197.586 1120.41 197.586L1120.17 195.805ZM1136.84 199.133V204.992H1134.61V200.867H1122.8V199.133H1136.84ZM1132.83 185.797V187.461H1120.71V185.797H1125.66V183.828H1127.88V185.797H1132.83ZM1126.76 189.688C1124.95 189.664 1123.88 190.25 1123.88 191.258C1123.88 192.242 1124.95 192.875 1126.76 192.875C1128.54 192.875 1129.62 192.242 1129.62 191.258C1129.62 190.25 1128.54 189.664 1126.76 189.688ZM1158.47 184.016V199.273H1156.24V184.016H1158.47ZM1159.1 202.742V204.547H1144.73V197.727H1146.98V202.742H1159.1ZM1147.08 185.422C1150.24 185.422 1152.66 187.578 1152.66 190.625C1152.66 193.719 1150.24 195.852 1147.08 195.852C1143.91 195.852 1141.48 193.719 1141.48 190.625C1141.48 187.578 1143.91 185.422 1147.08 185.422ZM1147.08 187.367C1145.11 187.367 1143.66 188.703 1143.66 190.625C1143.66 192.594 1145.11 193.906 1147.08 193.906C1149 193.906 1150.48 192.594 1150.48 190.625C1150.48 188.703 1149 187.367 1147.08 187.367ZM1178.16 183.992V192.5H1181.53V194.352H1178.16V204.992H1175.95V183.992H1178.16ZM1174.12 187.273V189.102H1161.68V187.273H1166.86V184.273H1169.09V187.273H1174.12ZM1167.98 190.648C1170.98 190.648 1173.19 192.664 1173.21 195.523C1173.19 198.406 1170.98 200.398 1167.98 200.422C1164.96 200.398 1162.76 198.406 1162.76 195.523C1162.76 192.664 1164.96 190.648 1167.98 190.648ZM1167.98 192.477C1166.2 192.477 1164.87 193.719 1164.89 195.523C1164.87 197.352 1166.2 198.57 1167.98 198.547C1169.77 198.57 1171.08 197.352 1171.08 195.523C1171.08 193.719 1169.77 192.477 1167.98 192.477ZM1188.94 189.734C1188.94 193.086 1190.34 196.672 1193.16 198.383L1191.91 200.094C1189.95 198.91 1188.61 196.812 1187.91 194.375C1187.12 197.047 1185.68 199.32 1183.64 200.562L1182.26 198.898C1185.23 197.117 1186.78 193.414 1186.78 189.828V185.914H1188.94V189.734ZM1200.61 183.992V204.992H1198.48V183.992H1200.61ZM1196.25 184.391V203.961H1194.14V193.227H1190.88V191.375H1194.14V184.391H1196.25ZM1222.5 200.516V202.367H1203.28V200.516H1207.88V195.031C1206.15 194.082 1205.11 192.57 1205.11 190.695C1205.11 187.391 1208.34 185.211 1212.84 185.211C1217.37 185.211 1220.6 187.391 1220.6 190.695C1220.6 192.547 1219.59 194.035 1217.91 194.984V200.516H1222.5ZM1212.84 186.992C1209.54 186.992 1207.27 188.422 1207.27 190.695C1207.27 192.945 1209.54 194.422 1212.84 194.422C1216.12 194.422 1218.45 192.945 1218.45 190.695C1218.45 188.422 1216.12 186.992 1212.84 186.992ZM1210.08 200.516H1215.66V195.828C1214.8 196.051 1213.85 196.156 1212.84 196.156C1211.86 196.156 1210.92 196.051 1210.08 195.852V200.516ZM1226.41 203.164C1225.5 203.164 1224.73 202.414 1224.75 201.5C1224.73 200.586 1225.5 199.836 1226.41 199.836C1227.3 199.836 1228.08 200.586 1228.08 201.5C1228.08 202.414 1227.3 203.164 1226.41 203.164Z" fill="#222222"/>
</svg>
