<svg width="230" height="80" viewBox="0 0 230 80" fill="none" xmlns="http://www.w3.org/2000/svg">
<g filter="url(#filter0_d_1070_1857)">
<rect x="15" y="11" width="200" height="50" fill="#173F95"/>
</g>
<path d="M65.4756 32.3848C65.4756 34.8809 67.1104 37.6582 69.501 38.7832L68.5518 40.084C66.7852 39.2314 65.3877 37.4561 64.6846 35.3906C63.9551 37.6494 62.4785 39.5918 60.6768 40.4883L59.6924 39.1699C62.083 38.0273 63.8232 35.0566 63.8232 32.3848V30.7148H60.2725V29.3262H68.9033V30.7148H65.4756V32.3848ZM72.2607 27.7441V33.9844H74.792V35.3906H72.2607V43.4941H70.5908V27.7441H72.2607ZM80.3467 32.0508C80.3467 34.5645 81.4014 37.2539 83.5107 38.5371L82.5791 39.8203C81.1025 38.9326 80.1006 37.3594 79.5732 35.5312C78.9844 37.5352 77.9033 39.2402 76.374 40.1719L75.3369 38.9238C77.5693 37.5879 78.7295 34.8105 78.7295 32.1211V29.1855H80.3467V32.0508ZM89.1006 27.7441V43.4941H87.501V27.7441H89.1006ZM85.8311 28.043V42.7207H84.249V34.6699H81.8057V33.2812H84.249V28.043H85.8311ZM104.147 27.7441V43.4941H102.478V27.7441H104.147ZM100.948 30.2402V31.5938H91.4561V30.2402H95.3408V27.9023H97.0283V30.2402H100.948ZM96.2197 32.7363C98.5225 32.7363 100.192 34.248 100.192 36.3926C100.192 38.5547 98.5225 40.0488 96.2197 40.0664C93.9346 40.0488 92.2646 38.5547 92.2646 36.3926C92.2646 34.248 93.9346 32.7363 96.2197 32.7363ZM96.2197 34.1074C94.8486 34.1074 93.8467 35.0391 93.8467 36.3926C93.8467 37.7637 94.8486 38.6777 96.2197 38.6602C97.5908 38.6777 98.5928 37.7637 98.5928 36.3926C98.5928 35.0391 97.5908 34.1074 96.2197 34.1074ZM125.47 40.1543V41.543H111.056V40.1543H117.401V36.9199H112.708V28.8164H114.378V31.5234H122.112V28.8164H123.765V36.9199H119.054V40.1543H125.47ZM114.378 35.5664H122.112V32.877H114.378V35.5664ZM139.708 27.7441V43.4941H138.021V27.7441H139.708ZM135.015 29.4316C135.015 34.0371 133.046 38.0449 127.649 40.6289L126.771 39.2754C130.963 37.2803 133.002 34.4414 133.327 30.7676H127.526V29.4316H135.015Z" fill="white"/>
<path d="M166.989 37.9873L164.853 37.9823L164.864 33.3767L154.583 42.9705L153.075 41.5574L163.328 31.9897L158.462 31.9792L158.467 29.9838L167.009 30.0021L166.989 37.9873Z" fill="white"/>
<defs>
<filter id="filter0_d_1070_1857" x="0" y="0" width="230" height="80" filterUnits="userSpaceOnUse" color-interpolation-filters="sRGB">
<feFlood flood-opacity="0" result="BackgroundImageFix"/>
<feColorMatrix in="SourceAlpha" type="matrix" values="0 0 0 0 0 0 0 0 0 0 0 0 0 0 0 0 0 0 127 0" result="hardAlpha"/>
<feOffset dy="4"/>
<feGaussianBlur stdDeviation="7.5"/>
<feComposite in2="hardAlpha" operator="out"/>
<feColorMatrix type="matrix" values="0 0 0 0 0 0 0 0 0 0 0 0 0 0 0 0 0 0 0.15 0"/>
<feBlend mode="normal" in2="BackgroundImageFix" result="effect1_dropShadow_1070_1857"/>
<feBlend mode="normal" in="SourceGraphic" in2="effect1_dropShadow_1070_1857" result="shape"/>
</filter>
</defs>
</svg>
