<svg width="20" height="20" viewBox="0 0 20 20" fill="none" xmlns="http://www.w3.org/2000/svg">
<path d="M8.21202 16.424C3.66382 16.424 0 12.7602 0 8.21201C0 3.66382 3.66382 0 8.21202 0C12.7602 0 16.424 3.66382 16.424 8.21201C16.424 12.7602 12.7602 16.424 8.21202 16.424ZM8.21202 1.26339C4.35869 1.26339 1.26339 4.35868 1.26339 8.21201C1.26339 12.0653 4.35869 15.1606 8.21202 15.1606C12.0653 15.1606 15.1606 12.0653 15.1606 8.21201C15.1606 4.35868 12.0653 1.26339 8.21202 1.26339Z" fill="white"/>
<path d="M14.3288 13.4375L20.0014 19.1101L19.1082 20.0033L13.4355 14.3307L14.3288 13.4375Z" fill="white"/>
</svg>
