<svg width="536" height="162" viewBox="0 0 536 162" fill="none" xmlns="http://www.w3.org/2000/svg">
<path d="M15.3984 9.5332V11.1152H9.08789V16.5469H7.1543V11.1152H0.914062V9.5332H15.3984ZM14.0625 1.57031V3.11719H9.29883C9.41309 4.85742 11.5049 6.52734 14.6426 6.93164L13.9395 8.46094C11.2324 8.08301 9.12305 6.84375 8.15625 5.12109C7.18945 6.84375 5.08008 8.08301 2.4082 8.46094L1.66992 6.93164C4.79004 6.52734 6.88184 4.85742 7.03125 3.11719H2.25V1.57031H14.0625ZM30.9902 13.0312V14.6309H16.4707V13.0312H19.8281V9.00586C18.5625 8.28516 17.7979 7.15137 17.8066 5.73633C17.7891 3.20508 20.2852 1.53516 23.6953 1.53516C27.123 1.53516 29.6191 3.20508 29.6191 5.73633C29.6191 7.125 28.8809 8.24121 27.6504 8.9707V13.0312H30.9902ZM23.6953 3.08203C21.3223 3.08203 19.7051 4.08398 19.7227 5.73633C19.7051 7.37109 21.3223 8.39062 23.6953 8.39062C26.0684 8.39062 27.7031 7.37109 27.7031 5.73633C27.7031 4.08398 26.0684 3.08203 23.6953 3.08203ZM21.7617 13.0312H25.6641V9.70898C25.0576 9.84961 24.3984 9.91992 23.6953 9.91992C23.0098 9.91992 22.3594 9.84961 21.7617 9.72656V13.0312ZM45 2.13281V3.66211C44.9824 5.63086 44.9824 7.8457 44.3672 11.168L42.3984 10.957C43.0137 7.86328 43.0137 5.60449 43.0312 3.69727H33.5391V2.13281H45ZM46.5117 12.9082V14.5078H32.0273V12.9082H37.3711V7.38867H39.3047V12.9082H46.5117ZM61.1719 0.691406V10.0078H59.3086V6.05273H57.6387V9.9375H55.793V0.990234H57.6387V4.45312H59.3086V0.691406H61.1719ZM61.1719 10.6582V16.5645H59.2207V12.2402H50.2207V10.6582H61.1719ZM54.5098 1.79883C54.5273 5.73633 52.5234 8.47852 48.4277 10.1484L47.4961 8.68945C50.5898 7.51172 52.207 5.70996 52.5234 3.38086H48.2168V1.79883H54.5098Z" fill="#173F95"/>
<path d="M38.4473 63.9102C38.4473 76.3555 30.6953 83.5273 20.623 83.5273C10.4453 83.5273 2.74609 76.3027 2.74609 63.9102C2.74609 51.4648 10.4453 44.293 20.623 44.293C30.6953 44.293 38.4473 51.4648 38.4473 63.9102ZM30.3789 63.9102C30.3789 55.7363 26.5293 51.3066 20.623 51.3066C14.7168 51.3066 10.8145 55.7363 10.8145 63.9102C10.8145 72.084 14.7168 76.5137 20.623 76.5137C26.5293 76.5137 30.3789 72.084 30.3789 63.9102ZM62.3359 70.8184V54.3652H70.1406V83H62.6523V77.832H62.3359C61.0176 81.1543 57.959 83.3691 53.6348 83.3691C47.8867 83.3691 43.9844 79.3086 43.9844 72.6113V54.3652H51.7891V71.2402C51.7891 74.6152 53.7402 76.7773 56.7988 76.7773C59.6465 76.7773 62.3359 74.7207 62.3359 70.8184ZM76.2051 83V54.3652H83.7461V59.3223H84.0625C85.1172 55.7891 87.7539 53.9434 90.9707 53.9434C91.7617 53.9434 92.7637 54.0488 93.4492 54.207V61.168C92.7109 60.957 91.2344 60.7461 90.127 60.7461C86.5938 60.7461 84.0098 63.2246 84.0098 66.7051V83H76.2051ZM108.373 51.3594V44.8203H139.645V51.3594H127.938V83H120.08V51.3594H108.373ZM141.385 83V54.3652H148.926V59.3223H149.242C150.297 55.7891 152.934 53.9434 156.15 53.9434C156.941 53.9434 157.943 54.0488 158.629 54.207V61.168C157.891 60.957 156.414 60.7461 155.307 60.7461C151.773 60.7461 149.189 63.2246 149.189 66.7051V83H141.385ZM180.777 70.8184V54.3652H188.582V83H181.094V77.832H180.777C179.459 81.1543 176.4 83.3691 172.076 83.3691C166.328 83.3691 162.426 79.3086 162.426 72.6113V54.3652H170.23V71.2402C170.23 74.6152 172.182 76.7773 175.24 76.7773C178.088 76.7773 180.777 74.7207 180.777 70.8184ZM210.994 62.8555C210.678 60.8516 208.885 59.5332 206.301 59.5332C203.77 59.5332 201.818 60.7461 201.871 62.4863C201.818 63.752 202.873 64.7539 205.562 65.334L210.678 66.3887C216.215 67.5488 218.904 70.0273 218.957 74.1406C218.904 79.7832 213.842 83.5801 206.248 83.5801C198.496 83.5801 193.961 80.0996 193.328 74.5098H201.186C201.555 76.7773 203.4 77.9375 206.248 77.9375C209.096 77.9375 210.994 76.7773 210.994 74.9316C210.994 73.4551 209.781 72.5586 207.092 71.9785L202.346 71.0293C196.914 69.9746 194.066 67.127 194.119 62.9082C194.066 57.4238 198.812 53.9961 206.195 53.9961C213.42 53.9961 217.902 57.4238 218.324 62.8555H210.994ZM238.838 54.3652V60.2188H233.459V74.1934C233.459 76.4609 234.566 77.041 236.148 77.0938C236.939 77.0938 238.311 77.041 239.26 76.9355V83.1055C238.416 83.2637 237.045 83.3691 235.094 83.3691C229.451 83.3691 225.602 80.8379 225.654 75.3008V60.2188H221.699V54.3652H225.654V47.5098H233.459V54.3652H238.838ZM256.398 83.5801C247.645 83.5801 242.266 77.8848 242.266 68.8145C242.266 59.9551 247.697 53.9961 256.082 53.9961C263.623 53.9961 269.529 58.7422 269.529 68.498V70.7129H249.965C249.965 75.0371 252.549 77.7266 256.557 77.7266C259.193 77.7266 261.092 76.5664 261.883 74.8262H269.318C268.211 80.0996 263.465 83.5801 256.398 83.5801ZM249.965 65.8086H262.146C262.146 62.3281 259.721 59.8496 256.24 59.8496C252.654 59.8496 250.097 62.5127 249.965 65.8086ZM284.98 83.4746C278.441 83.4746 273.326 78.2539 273.326 68.709C273.326 58.9004 278.652 53.9961 284.98 53.9961C289.779 53.9961 292.047 56.8438 293.102 59.1641H293.365V44.8203H301.17V83H293.471V78.4121H293.102C291.994 80.7852 289.621 83.4746 284.98 83.4746ZM287.406 77.252C291.309 77.252 293.523 73.8242 293.523 68.6562C293.523 63.4883 291.309 60.2188 287.406 60.2188C283.451 60.2188 281.342 63.6465 281.342 68.6562C281.342 73.7188 283.451 77.252 287.406 77.252ZM320.049 83V44.8203H335.025C343.727 44.8203 348.684 50.1465 348.684 57.6875C348.684 65.334 343.621 70.5547 334.814 70.5547H327.959V83H320.049ZM327.959 64.1738H333.549C338.242 64.1738 340.51 61.5371 340.51 57.6875C340.51 53.8906 338.242 51.3066 333.549 51.3066H327.959V64.1738ZM351.426 74.9844C351.426 68.6035 356.594 66.4941 362.078 66.1777C364.135 66.0459 367.984 65.8613 369.197 65.8086V63.4883C369.145 61.1152 367.51 59.6914 364.609 59.6914C361.973 59.6914 360.285 60.9043 359.863 62.8555H352.428C352.902 57.8984 357.227 53.9961 364.82 53.9961C371.043 53.9961 376.949 56.791 376.949 63.6992V83H369.566V79.0449H369.355C367.932 81.6816 365.242 83.5273 360.971 83.5273C355.486 83.5273 351.426 80.6797 351.426 74.9844ZM358.914 74.7734C358.914 76.9883 360.707 78.1484 363.186 78.1484C366.719 78.1484 369.25 75.7754 369.197 72.7695V70.6602C368.011 70.7129 364.688 70.8975 363.344 71.0293C360.654 71.293 358.914 72.5586 358.914 74.7734ZM382.908 83V54.3652H390.449V59.3223H390.766C391.82 55.7891 394.457 53.9434 397.674 53.9434C398.465 53.9434 399.467 54.0488 400.152 54.207V61.168C399.414 60.957 397.938 60.7461 396.83 60.7461C393.297 60.7461 390.713 63.2246 390.713 66.7051V83H382.908ZM420.455 54.3652V60.2188H415.076V74.1934C415.076 76.4609 416.184 77.041 417.766 77.0938C418.557 77.0938 419.928 77.041 420.877 76.9355V83.1055C420.033 83.2637 418.662 83.3691 416.711 83.3691C411.068 83.3691 407.219 80.8379 407.271 75.3008V60.2188H403.316V54.3652H407.271V47.5098H415.076V54.3652H420.455ZM433.164 66.4414V83H425.359V54.3652H432.795V59.375H433.111C434.43 56.0527 437.488 53.9961 441.707 53.9961C447.666 53.9961 451.621 58.0566 451.568 64.7539V83H443.816V66.125C443.816 62.5918 441.865 60.4824 438.648 60.4824C435.379 60.4824 433.164 62.6445 433.164 66.4414ZM470.605 83.5801C461.852 83.5801 456.473 77.8848 456.473 68.8145C456.473 59.9551 461.904 53.9961 470.289 53.9961C477.83 53.9961 483.736 58.7422 483.736 68.498V70.7129H464.172C464.172 75.0371 466.756 77.7266 470.764 77.7266C473.4 77.7266 475.299 76.5664 476.09 74.8262H483.525C482.418 80.0996 477.672 83.5801 470.605 83.5801ZM464.172 65.8086H476.354C476.354 62.3281 473.928 59.8496 470.447 59.8496C466.861 59.8496 464.304 62.5127 464.172 65.8086ZM488.641 83V54.3652H496.182V59.3223H496.498C497.553 55.7891 500.189 53.9434 503.406 53.9434C504.197 53.9434 505.199 54.0488 505.885 54.207V61.168C505.146 60.957 503.67 60.7461 502.562 60.7461C499.029 60.7461 496.445 63.2246 496.445 66.7051V83H488.641ZM526.029 62.8555C525.713 60.8516 523.92 59.5332 521.336 59.5332C518.805 59.5332 516.854 60.7461 516.906 62.4863C516.854 63.752 517.908 64.7539 520.598 65.334L525.713 66.3887C531.25 67.5488 533.939 70.0273 533.992 74.1406C533.939 79.7832 528.877 83.5801 521.283 83.5801C513.531 83.5801 508.996 80.0996 508.363 74.5098H516.221C516.59 76.7773 518.436 77.9375 521.283 77.9375C524.131 77.9375 526.029 76.7773 526.029 74.9316C526.029 73.4551 524.816 72.5586 522.127 71.9785L517.381 71.0293C511.949 69.9746 509.102 67.127 509.154 62.9082C509.102 57.4238 513.848 53.9961 521.23 53.9961C528.455 53.9961 532.938 57.4238 533.359 62.8555H526.029Z" fill="#222222"/>
<path d="M12.9258 143.172V144.695H1.13672V143.172H6.19922V140.875H8.02734V143.172H12.9258ZM7.08984 145.703C9.87891 145.703 11.8477 147.203 11.8477 149.477C11.8477 151.727 9.87891 153.203 7.08984 153.203C4.27734 153.203 2.35547 151.727 2.37891 149.477C2.35547 147.203 4.27734 145.703 7.08984 145.703ZM7.08984 147.133C5.28516 147.133 4.08984 148.07 4.08984 149.477C4.08984 150.859 5.28516 151.82 7.08984 151.82C8.89453 151.82 10.1133 150.859 10.1367 149.477C10.1133 148.07 8.89453 147.133 7.08984 147.133ZM18.3867 141.062V153.391H16.5352V151.539H12.9023V150.016H16.5352V147.461H12.9258V145.938H16.5352V141.062H18.3867ZM6.64453 154.258V156.461H16.5586V154.258H18.3867V161.617H4.81641V154.258H6.64453ZM6.64453 160.141H16.5586V157.891H6.64453V160.141ZM31.7461 142.352V148.188H24.5742V151.422C28.4883 151.422 30.5039 151.363 32.9648 150.906L33.1523 152.43C30.5508 152.852 28.4414 152.922 24.2227 152.922H22.7461V146.781H29.918V143.828H22.6992V142.352H31.7461ZM39.1289 141.086V153.883H37.2773V150.016H33.1289V148.492H37.2773V145.68H33.1289V144.18H37.2773V141.086H39.1289ZM39.1289 155.008V161.945H37.2773V156.508H25.0898V155.008H39.1289ZM52.0898 141.438C56.7305 141.438 59.4492 142.703 59.4492 145.023C59.4492 147.391 56.7305 148.656 52.0898 148.68C47.4492 148.656 44.707 147.391 44.707 145.023C44.707 142.703 47.4492 141.438 52.0898 141.438ZM52.0898 142.82C48.6211 142.82 46.6055 143.664 46.6289 145.023C46.6055 146.477 48.6211 147.273 52.0898 147.273C55.5352 147.273 57.5742 146.477 57.5742 145.023C57.5742 143.664 55.5352 142.82 52.0898 142.82ZM61.582 150.086V151.586H42.5977V150.086H61.582ZM59.1445 153.391V158.055H46.7695V160.211H59.7773V161.664H44.9414V156.695H57.3398V154.797H44.8945V153.391H59.1445ZM88.3477 152.125V153.625H69.3398V152.125H77.918V150.062H71.8711V141.672H85.9805V143.172H73.7227V145.117H85.418V146.523H73.7227V148.586H86.0977V150.062H79.7461V152.125H88.3477ZM78.8555 155.195C83.4258 155.172 86.0039 156.344 86.0273 158.523C86.0039 160.703 83.4258 161.852 78.8555 161.852C74.2383 161.852 71.6602 160.703 71.6602 158.523C71.6602 156.344 74.2383 155.172 78.8555 155.195ZM78.8555 156.578C75.4102 156.578 73.4883 157.281 73.5117 158.523C73.4883 159.789 75.4102 160.445 78.8555 160.422C82.2539 160.445 84.1758 159.789 84.1758 158.523C84.1758 157.281 82.2539 156.578 78.8555 156.578ZM100.512 144.672V146.172H90.0586V144.672H94.3945V141.695H96.2227V144.672H100.512ZM95.2852 147.578C97.9102 147.578 99.7852 149.547 99.8086 152.312C99.7852 155.102 97.9102 157.094 95.2852 157.094C92.6836 157.094 90.8086 155.102 90.8086 152.312C90.8086 149.547 92.6836 147.578 95.2852 147.578ZM95.2852 149.125C93.6445 149.148 92.4492 150.484 92.4492 152.312C92.4492 154.164 93.6445 155.5 95.2852 155.477C96.9492 155.5 98.168 154.164 98.168 152.312C98.168 150.484 96.9492 149.148 95.2852 149.125ZM107.848 141.062V161.898H106.09V151.375H103.324V160.867H101.59V141.578H103.324V149.852H106.09V141.062H107.848ZM124.043 144.344C124.02 147.32 126.129 149.945 129.199 150.977L128.168 152.406C125.871 151.539 124.066 149.852 123.176 147.648C122.273 150.145 120.363 152.09 117.855 153.039L116.848 151.539C120.059 150.414 122.191 147.648 122.215 144.414V142.258H124.043V144.344ZM134.145 141.062V153.414H132.293V147.062H127.652V145.539H132.293V141.062H134.145ZM127.23 154.023C131.566 154.023 134.215 155.453 134.215 157.961C134.215 160.445 131.566 161.852 127.23 161.852C122.895 161.852 120.246 160.445 120.246 157.961C120.246 155.453 122.895 154.023 127.23 154.023ZM127.23 155.477C124.043 155.477 122.051 156.414 122.074 157.961C122.051 159.461 124.043 160.375 127.23 160.375C130.418 160.375 132.387 159.461 132.387 157.961C132.387 156.414 130.418 155.477 127.23 155.477ZM147.035 154.234C151.512 154.234 154.348 155.641 154.348 158.055C154.348 160.445 151.512 161.852 147.035 161.852C142.582 161.852 139.746 160.445 139.746 158.055C139.746 155.641 142.582 154.234 147.035 154.234ZM147.035 155.641C143.707 155.664 141.551 156.578 141.574 158.055C141.551 159.508 143.707 160.398 147.035 160.398C150.363 160.398 152.496 159.508 152.52 158.055C152.496 156.578 150.363 155.664 147.035 155.641ZM154.184 142.141V143.898C154.184 145.586 154.184 147.273 153.598 149.43L151.793 149.219C152.355 147.062 152.355 145.539 152.355 143.898V143.641H139.887V142.141H154.184ZM156.598 150.789V152.289H137.637V150.789H145.488V146.758H147.293V150.789H156.598ZM167.848 141.438C172.488 141.438 175.207 142.703 175.207 145.023C175.207 147.391 172.488 148.656 167.848 148.68C163.207 148.656 160.465 147.391 160.465 145.023C160.465 142.703 163.207 141.438 167.848 141.438ZM167.848 142.82C164.379 142.82 162.363 143.664 162.387 145.023C162.363 146.477 164.379 147.273 167.848 147.273C171.293 147.273 173.332 146.477 173.332 145.023C173.332 143.664 171.293 142.82 167.848 142.82ZM177.34 150.086V151.586H158.355V150.086H177.34ZM174.902 153.391V158.055H162.527V160.211H175.535V161.664H160.699V156.695H173.098V154.797H160.652V153.391H174.902ZM202.301 141.062V161.945H200.449V141.062H202.301ZM191.215 142.68C194.309 142.703 196.535 145.516 196.535 149.945C196.535 154.375 194.309 157.188 191.215 157.188C188.098 157.188 185.895 154.375 185.895 149.945C185.895 145.516 188.098 142.703 191.215 142.68ZM191.215 144.32C189.129 144.344 187.676 146.547 187.676 149.945C187.676 153.344 189.129 155.547 191.215 155.547C193.301 155.547 194.754 153.344 194.754 149.945C194.754 146.547 193.301 144.344 191.215 144.32ZM222.598 141.906V147.32H210.035V150.016H223.043V151.539H208.184V145.867H220.723V143.406H208.137V141.906H222.598ZM224.918 153.742V155.219H216.246V161.945H214.418V155.219H205.84V153.742H224.918ZM232.207 142.68C235.043 142.703 237.082 145.129 237.387 149.031H242.051V141.062H243.879V161.945H242.051V150.555H237.41C237.188 154.633 235.113 157.188 232.207 157.188C229.137 157.188 226.98 154.375 226.98 149.945C226.98 145.516 229.137 142.703 232.207 142.68ZM232.207 144.32C230.145 144.344 228.738 146.547 228.738 149.945C228.738 153.344 230.145 155.547 232.207 155.547C234.246 155.547 235.676 153.344 235.676 149.945C235.676 146.547 234.246 144.344 232.207 144.32ZM263.637 141.062V146.031H266.777V147.578H263.637V152.336H261.785V141.062H263.637ZM257.965 142.352C257.965 147.555 254.238 151.094 248.098 152.617L247.395 151.094C252.551 149.852 255.609 147.215 255.949 143.852H248.309V142.352H257.965ZM252.246 153.297V155.945H261.809V153.297H263.637V161.617H250.395V153.297H252.246ZM252.246 160.117H261.809V157.422H252.246V160.117ZM285.27 141.062V161.898H283.441V141.062H285.27ZM271.254 143.125V154.938C274.43 154.926 277.723 154.668 281.215 153.93L281.473 155.5C277.77 156.273 274.465 156.531 271.137 156.531H269.449V143.125H271.254ZM304.957 141.062V149.312H308.449V150.859H304.957V161.945H303.129V141.062H304.957ZM299.473 143.102V144.625H291.574V155.172C295.348 155.172 298.02 154.996 301.113 154.422L301.348 156.016C298.09 156.602 295.348 156.719 291.387 156.719H289.746V143.102H299.473Z" fill="#222222"/>
</svg>
